<?xml version="1.0" standalone="no"?>
<!DOCTYPE svg PUBLIC "-//W3C//DTD SVG 1.1//EN" "http://www.w3.org/Graphics/SVG/1.1/DTD/svg11.dtd" >
<svg xmlns="http://www.w3.org/2000/svg" xmlns:xlink="http://www.w3.org/1999/xlink" version="1.1">
<metadata>
Created by FontForge 20190801 at Thu Oct  1 12:38:18 2020
 By Unknown
Pumpkin Story(c)(Sronstudio). 2020. All Rights Reserved
</metadata>
<defs>
<font id="PumpkinStory" horiz-adv-x="483" >
  <font-face 
    font-family="Pumpkin Story"
    font-weight="400"
    font-stretch="normal"
    units-per-em="1000"
    panose-1="2 0 5 0 0 0 0 0 0 0"
    ascent="800"
    descent="-200"
    x-height="421"
    cap-height="690"
    bbox="-150 -291 900 941"
    underline-thickness="50"
    underline-position="-100"
    unicode-range="U+001D-2265"
  />
<missing-glyph horiz-adv-x="500" 
 />
    <glyph glyph-name=".notdef" horiz-adv-x="500" 
 />
    <glyph glyph-name=".null" horiz-adv-x="0" 
 />
    <glyph glyph-name=".null" horiz-adv-x="0" 
 />
    <glyph glyph-name="nonmarkingreturn" horiz-adv-x="1335" 
 />
    <glyph glyph-name="space" unicode=" " horiz-adv-x="252" 
 />
    <glyph glyph-name="space" unicode="&#xa0;" horiz-adv-x="252" 
 />
    <glyph glyph-name="A" unicode="A" 
d="M149 288q19 0 44 3q61 8 69 14q23 14 23 113q0 29 -11 171q-4 45 -29 45h-8q-7 0 -24 -17q-41 -43 -72 -164q-19 -73 -19 -122q0 -25 6 -39q3 -4 21 -4zM389 -43q-23 0 -40 5q-75 26 -80 191v57q0 21 -2 30t-18 9q-12 0 -58 -6q-57 -9 -62 -25q-1 -10 -1 -25
q0 -39 10 -113l4 -42q0 -18 -9 -30.5t-24 -14.5q-15 0 -32 13q-45 39 -45 177q0 112 34 240q37 137 98 210q45 53 102 53q14 0 38.5 -6.5t51.5 -40.5q30 -41 59 -211q28 -165 32 -307q0 -76 -5 -112q-9 -47 -53 -52z" />
    <glyph glyph-name="B" unicode="B" horiz-adv-x="478" 
d="M242 46q26 0 73 55q35 40 35 65q0 4 -2.5 18.5t-45.5 30.5q-17 5 -37 5q-22 0 -34 -10t-12 -39q0 -93 11 -118q5 -7 12 -7zM229 -51q-48 0 -81 26q-55 44 -75 146q-9 47 -9 107q0 44 7 87q15 101 57 151q25 30 53 30q12 -1 22 -6q20 -10 27.5 -23.5t8.5 -29.5
q0 -16 -2 -32.5t-2 -31.5q0 -10 3 -19q36 10 98 84q64 78 66 122q0 29 -19 47q-26 23 -69 23q-62 0 -127 -47.5t-94 -104.5q-6 -15 -16 -35q-10 -16 -23 -16q-6 0 -14 8q-15 13 -15 47q0 12 3 26q14 59 69 109q85 78 179 78q7 0 33 -1t62 -21q40 -23 64 -61q27 -46 27 -96
q0 -113 -161 -250q46 -6 79 -30q60 -45 60 -115q0 -9 -3.5 -33t-32.5 -57q-24 -26 -54 -45q-58 -37 -121 -37z" />
    <glyph glyph-name="C" unicode="C" horiz-adv-x="467" 
d="M278 -44q-174 0 -226 159q-22 65 -22 143q0 160 71.5 295.5t179.5 135.5q16 0 31 -4q76 -20 110 -117q23 -66 23 -139q-2 -73 -44 -119q-19 -19 -46 -19t-42 18q-9 14 -9 27q0 14 11 26q36 47 36 143q0 68 -19 109q-13 27 -32 27q-13 0 -28 -15q-39 -38 -64 -97
q-44 -101 -44 -220q0 -24 3.5 -71.5t27 -108.5t65.5 -101q20 -19 41 -19q19 2 31 18t12 17q33 51 59 54q33 -2 33 -39l-1 -13q-4 -45 -80 -73q-39 -14 -77 -17z" />
    <glyph glyph-name="D" unicode="D" horiz-adv-x="546" 
d="M206 -36l-22 2q-80 5 -80 256q0 63 7 124q7 68 15 81q7 31 20.5 44.5t38.5 13.5q29 0 46 -28q33 -55 33 -290q0 -34 -1.5 -59t-1.5 -49q0 -7 0.5 -12.5t2.5 -9.5t7 -4q33 11 57 41q47 58 67 161q9 45 9 89q0 75 -25 163t-73 134q-33 31 -73 31q-63 0 -108 -83
q-29 -53 -30 -98q-4 -56 -33 -56q-15 0 -29 14q-22 21 -22 63q0 38 21 85q35 67 109 100q43 18 91 18q51 0 97 -20q91 -40 143 -145q42 -86 42 -181q0 -115 -66 -223q-60 -99 -160 -144q-43 -18 -82 -18z" />
    <glyph glyph-name="E" unicode="E" horiz-adv-x="401" 
d="M244 -46l-26 1q-70 2 -113 43q-25 26 -41 75q-26 81 -26 195q0 94 17 181q27 139 87 189q19 16 51 28q56 22 116 22q10 0 30.5 -1.5t40.5 -14.5q27 -17 29 -49q0 -15 -8 -26q-12 -18 -36 -18q-20 1 -61 17t-58 16q-30 -1 -41.5 -31.5t-11.5 -89.5q0 -26 1.5 -59t4.5 -60
t4 -28q38 15 82 15q56 0 56 -32q0 -10 -7 -18q-19 -21 -82 -29q-30 -2 -42 -16q-9 -11 -9 -39q0 -129 47 -197q15 -20 33 -20q19 0 30 24q8 17 8 50q0 49 20 58q9 4 22 4q11 0 20.5 -11t9.5 -35q0 -20 -9 -52q-21 -64 -67 -81q-27 -11 -71 -11z" />
    <glyph glyph-name="F" unicode="F" horiz-adv-x="437" 
d="M180 -44q-76 0 -93 114q-7 44 -7 114q0 34 3.5 97.5t14 149t26.5 138.5q-24 -9 -43 -20q-29 -12 -40 -12q-12 0 -17.5 8t-5.5 18q0 42 85 79q77 33 189 50q75 11 136 11q48 0 77 -13q35 -16 35 -36q0 -3 -2 -10q-8 -21 -86 -21q-74 0 -219 -26q4 -22 4.5 -62t0 -77.5
t-1.5 -53.5v-13q0 -46 23 -46q10 0 22.5 4t24.5 8t21.5 7t15.5 3q17 0 27 -11t11 -25q0 -15 -11 -28t-37 -17q-7 0 -37 -5q-47 -9 -56 -31q-4 -15 -4 -39q0 -74 16 -164q2 -12 2 -22q0 -32 -20.5 -50.5t-53.5 -18.5z" />
    <glyph glyph-name="G" unicode="G" horiz-adv-x="527" 
d="M255 -46q-48 0 -89 30q-9 6 -19 18q-26 27 -26 52q0 20 15 28q7 4 15 4q6 0 19 -3.5t37 -41.5l17 -24q15 -18 30 -18q30 0 54.5 43.5t29.5 77.5q0 4 5 33q2 16 3.5 34.5t1.5 35.5q-2 37 -16 37q-7 0 -20 -22q-43 -72 -114 -72q-42 0 -82 26q-31 19 -54 51q-42 57 -42 134
q0 61 27 122q42 96 117 152q56 42 114 42q26 0 52 -9q69 -27 94 -86q11 -23 11 -48q0 -28 -16 -40.5t-37 -12.5q-42 0 -42 39q0 8 1.5 17t1.5 19q0 33 -13 56t-31 23q-34 0 -72 -68q-29 -50 -46 -107q-19 -65 -19 -116q0 -76 28 -111q15 -19 34 -19q30 0 56 37q19 27 33 79
q23 112 83 112q49 0 76 -55q25 -50 25 -134q0 -55 -14 -113q-23 -93 -66 -132q-79 -70 -162 -70z" />
    <glyph glyph-name="H" unicode="H" horiz-adv-x="545" 
d="M456 -52q-18 0 -32 8q-34 15 -52 58q-15 32 -25 99l-3 21q-7 45 -52 83q-34 28 -65 28q-6 0 -11 -1l-3 -57q-4 -48 -4 -83q0 -24 -2 -51q-1 -21 -1 -39q-1 -22 -13.5 -36.5t-33.5 -14.5q-40 0 -62 54q-52 126 -52 326q0 127 19 226q11 47 25 75q21 43 55 43q41 -2 57 -43
q12 -32 15 -80q3 -91 3 -220v-24q0 -13 12 -17q28 -11 47.5 -23.5t43.5 -31.5l2 -1q8 -9 12 -9h1q1 0 1 23q0 111 15 245t38 165q15 21 37 21q8 0 19 -5q26 -12 37 -43q14 -49 14 -245q0 -348 -12 -423q-4 -28 -30 -28z" />
    <glyph glyph-name="I" unicode="I" horiz-adv-x="272" 
d="M113 -39q-62 0 -81 1q-40 4 -40 28q0 26 37 30q25 0 34 3q19 5 19 33v5q-9 151 -9 262q0 19 1.5 88.5t20.5 207.5v1q0 6 -27 8l-25 4q-29 7 -29 22q0 20 41 30q27 6 92 6q51 0 97 -4t46 -25q0 -12 -12.5 -21t-31.5 -12q-41 -5 -41 -17q15 -116 15 -299q0 -130 -7 -264v-3
q0 -19 21 -21q10 -1 33 -1q20 -2 20 -19q0 -11 -9 -22q-19 -21 -165 -21z" />
    <glyph glyph-name="J" unicode="J" horiz-adv-x="463" 
d="M247 -38q-55 0 -120 36q-42 24 -58.5 50t-16.5 48q0 19 15 27l10 3q18 -1 32 -39q5 -12 11 -22q12 -21 28 -21q13 0 34 17q31 29 53 77q41 90 59 227q12 96 12 188q0 44 -2 58q-5 20 -21 20q-7 0 -16 -3q-53 -26 -93 -99q-25 -45 -37.5 -89.5t-24 -59t-25.5 -14.5
q-12 0 -28 8q-40 20 -40 62q0 26 11 52q26 65 77.5 115t116.5 76q25 9 45 9q39 0 68 -30q59 -64 80 -246q8 -61 8 -124q0 -185 -71 -272q-45 -54 -107 -54z" />
    <glyph glyph-name="K" unicode="K" horiz-adv-x="486" 
d="M143 -27q-18 0 -27 6q-15 9 -25.5 31t-19.5 68q-6 28 -14 111q-12 130 -12 230q0 124 27 206q14 42 31 54q13 9 29 10q8 0 15.5 -1t14.5 -4q48 -25 56 -74q3 -18 4 -38l-1 -15v-41q0 -97 5 -204q48 29 99 94q32 42 57 83q15 26 42 80q10 22 23 23q12 0 22 -16
q8 -12 13 -27q3 -11 3 -36q0 -64 -48 -144q-51 -85 -117 -125l-9 -6l7 -1q70 -15 110 -81q31 -54 31 -112q0 -41 -35 -55q-13 -5 -28 -5t-28 5q-21 9 -32.5 28t-13.5 56l-1 33q-2 28 -15 53q-11 18 -28 26q-12 5 -28 5l-19 -1l-4.5 -1.5t-1.5 -2.5q-6 -22 -6 -59l-1 -16
l-5 -36q-2 -32 -7.5 -53.5t-19.5 -33.5t-43 -14z" />
    <glyph glyph-name="L" unicode="L" horiz-adv-x="348" 
d="M189 391v-51.5t1 -53.5q1 -36 1 -72l1 -36q0 -17 -1 -43t-4 -58q56 -4 130 -8q14 -2 26.5 -4t21.5 -6t14 -9.5t6 -14.5v-3q0 -6 -3 -12t-9 -10t-14 -7t-16.5 -4.5t-16.5 -2.5q-24 -4 -61.5 -8t-64.5 -6.5t-53 -4.5h-25h-30.5t-35.5 4q-9 2 -14.5 7.5t-8 13.5t-3.5 17v6
q0 8 2 17.5t8 18t14 13.5t19 5q-3 16 -6 31q-2 12 -4 20q-6 31 -10 66t-5.5 70.5t-1.5 68.5t1 60q2 50 7 106t12 105q4 22 8.5 36.5t10.5 23t12.5 12.5t14.5 5q5 1 9 1h5q9 0 16 -6.5t13 -18.5t10.5 -28t8 -34.5t6 -38.5t4 -40.5t2.5 -39.5t1.5 -36t1 -30t0.5 -21z" />
    <glyph glyph-name="M" unicode="M" horiz-adv-x="789" 
d="M620 8q-18 0 -30 15q-19 19 -19 64q0 54 43 250l15 77l21 96q7 38 7 81q0 42 -22 42q-5 0 -13 -3q-49 -24 -85 -109q-27 -65 -47 -159q-13 -63 -16 -116t-11 -84q-15 -47 -61 -49q-22 0 -37 7q-40 20 -58 113q-11 56 -11 137q0 50 6 80q3 12 5 39q0 31 -11 31h-1
q-7 0 -19 -13q-60 -66 -60 -222q0 -62 12 -176q0 -87 -59 -87q-46 0 -86 57q-36 49 -49 143q-10 57 -10 115q0 65 15 103t53 38q26 0 43.5 -16t23.5 -42q4 -19 10 -19q3 0 6 11q6 25 16 49q52 111 116 111q3 0 20 -1t42 -33.5t37 -94.5q0 -6 5 -29q2 -20 5 -26q6 6 8 15
l14 36q30 80 54 125q23 39 46 62q50 48 92 48q46 0 83 -60q40 -72 40 -197l-1 -49q-2 -83 -25 -175q-25 -119 -48 -149q-27 -36 -59 -36z" />
    <glyph glyph-name="N" unicode="N" horiz-adv-x="653" 
d="M232 -35q-26 0 -53 14q-50 26 -82 97q-18 38 -40 116q-23 89 -23 181t25 165q5 16 15 30q16 23 43 23l13 -1q35 -11 49 -49q8 -24 20 -112q15 -114 31 -178q8 -38 14 -38q5 0 10 31l17 115q11 79 26 128q29 101 79.5 150.5t102.5 49.5q137 0 137 -261q0 -80 -10 -165
q-22 -171 -75 -245q-25 -33 -55 -33q-14 0 -29 9t-25 29.5t-10 44.5v4q8 88 56 305q42 189 42 225q0 21 -7.5 33.5t-22.5 12.5q-44 0 -95 -90q-39 -71 -55 -187q-12 -79 -17 -210q-5 -99 -10 -127q-6 -34 -25.5 -50.5t-45.5 -16.5z" />
    <glyph glyph-name="O" unicode="O" horiz-adv-x="579" 
d="M343 45q20 0 42 20q42 38 72 153q23 87 23 169q0 28 -4 70q-8 86 -48 143q-35 48 -89 50q-77 0 -114 -91q-30 -73 -30 -183q0 -131 44 -234q41 -95 104 -97zM296 -35q-65 0 -122 35q-89 54 -124 173q-21 67 -21 144q0 106 41 202q43 94 128 145q61 36 121 36q27 0 53 -7
q89 -25 135 -123q39 -83 39 -192q0 -84 -24 -174q-33 -125 -90 -184q-58 -55 -136 -55z" />
    <glyph glyph-name="P" unicode="P" horiz-adv-x="526" 
d="M163 -37q-82 0 -103 139q-11 69 -11 175q0 82 9 203q1 5 1 12l5 43q10 99 43 138q16 20 43 20q48 0 60 -88q1 -4 1.5 -8.5t4.5 -18.5q1 -6 6 -6q4 0 11 8q36 43 85 78q57 41 105 41q3 0 18 -1t40 -21q48 -41 48 -120q0 -55 -24 -119q-36 -99 -101 -158q-49 -45 -97 -45
q-37 0 -49 29q-4 9 -4 17q0 31 34 50q58 29 108 99q30 41 54 98q20 46 20 77q0 5 -1 17.5t-17 23.5q-10 5 -21 5q-47 0 -129 -89q-48 -56 -63 -97q-12 -38 -12 -95q1 -60 4 -119q4 -69 4 -142l-1 -76q-16 -70 -71 -70z" />
    <glyph glyph-name="Q" unicode="Q" horiz-adv-x="584" 
d="M261 113q95 0 179 190q32 80 32 162q0 74 -24 119q-33 58 -87 58q-37 0 -70 -28q-55 -47 -99 -204q-18 -67 -18 -130q0 -75 19 -115q24 -52 68 -52zM94 -42q-5 0 -14.5 1.5t-18.5 15.5q-4 9 -4 17q0 16 14 28q18 16 43 24l33 9q34 8 34 14t-45 31q-112 60 -112 198
q0 133 75 270q48 90 96 126q22 14 50 14q24 0 33 -20q7 -13 20 -13q9 0 28.5 6t38.5 6q32 0 58 -16q71 -42 102 -144q21 -69 21 -136q0 -21 -2 -40q-15 -113 -59 -201q-8 -18 -9 -26q1 -7 10.5 -10t24 -5t29.5 -6t24 -13.5t9 -15.5q0 -10 -18 -16q-24 -6 -47 -6
q-173 -11 -356 -77q-33 -15 -58 -15z" />
    <glyph glyph-name="R" unicode="R" horiz-adv-x="534" 
d="M181 -25q-21 0 -35 16q-35 38 -44 151q-4 45 -4 96q0 84 9 165q14 129 44 151q17 13 37 13q33 0 51 -32q11 -20 11 -52v-10q-2 -26 -2 -51l-3 -105l-1 -13q0 -15 1 -19q1 -10 8 -10q18 0 60 33q25 20 51 50q62 68 82 133q8 27 8 53q0 43 -31 76q-20 20 -54 27
q-16 3 -33 3q-37 -2 -71 -13q-78 -26 -135 -71q-26 -20 -46 -45q-22 -29 -46 -29q-11 0 -18 7q-11 10 -11 31q0 35 49 84q37 37 80 59q75 38 153 38q95 0 161 -60q60 -58 60 -143q0 -53 -24 -110q-32 -72 -83 -121q-35 -33 -64 -48q65 -17 102 -79q16 -29 23.5 -60t7.5 -52
q0 -40 -36 -55q-13 -5 -28 -5q-38 0 -59 32q-15 22 -15 73q0 43 -16 70q-11 17 -27 26q-12 5 -29 5l-18 -1q-6 -14 -9 -56q-7 -89 -15 -117q-11 -35 -41 -35z" />
    <glyph glyph-name="S" unicode="S" horiz-adv-x="414" 
d="M197 -53q-43 0 -88 26q-67 37 -67 103q0 38 36 72q24 21 50 21q33 0 33 -29q0 -12 -7 -29q-14 -21 -14 -52q0 -24 12 -41q16 -24 45 -24q28 0 52 34q8 15 8 35q0 60 -99 199q-86 115 -106 160q-18 40 -18 75q0 80 67 141q64 56 134 56q96 -6 136 -76q22 -40 22 -92
q0 -66 -31 -94q-18 -16 -35 -16q-8 0 -17 4q-23 9 -23 35q0 11 5 24q15 45 16 84q-3 29 -16 52q-16 28 -36 28q-23 0 -46 -36q-24 -37 -28 -82q0 -37 19 -81q26 -62 104 -169q30 -41 54.5 -82t24.5 -79v-22q0 -20 -19 -51.5t-49 -53.5q-56 -40 -119 -40z" />
    <glyph glyph-name="T" unicode="T" horiz-adv-x="463" 
d="M286 -40q-49 0 -67 40q-31 65 -31 208l2 62q0 34 -10 54q-17 31 -88 81q-86 67 -86 124q2 55 86 94q73 34 185 52q100 16 180 16q37 0 55.5 -3.5t30 -11t12.5 -22.5q0 -15 -8 -23q-18 -18 -144 -18q-115 0 -193 -10q-107 -16 -142 -63q-7 -10 -7 -23q0 -18 13 -39
q16 -19 64 -61q51 -49 56 -49q10 67 14 120q3 37 16 62q15 32 61 40q59 0 63 -76q18 -230 18 -344q0 -110 -17 -167q-13 -43 -63 -43z" />
    <glyph glyph-name="U" unicode="U" horiz-adv-x="654" 
d="M265 -48h-3q-39 0 -77 21q-78 45 -112 173q-27 100 -27 230v45q0 145 39 218q24 46 62 46h6q47 -6 59 -38q7 -20 7 -51l-2 -35q0 -33 -7 -80q-7 -57 -7 -111q0 -105 12 -185q16 -104 52 -146q17 -20 39 -20q65 0 124 234q11 46 35 181q30 186 58 217q14 16 32 16
q43 0 43 -97q0 -27 -1 -66q-3 -36 -3 -64v-76q0 -29 0.5 -73t6 -101.5t17.5 -113.5q2 -12 2 -21q0 -15 -7 -29q-11 -22 -41 -22q-32 0 -55 31q-18 23 -35 84l-7 23q-3 15 -7 15q-3 0 -6 -7q-71 -198 -197 -198z" />
    <glyph glyph-name="V" unicode="V" horiz-adv-x="507" 
d="M290 -37q-56 0 -101 52q-57 64 -94 186q-33 105 -47 231q-8 65 -8 117q0 78 22 112q18 29 45 29q33 0 57 -44q17 -32 28 -82q23 -109 59 -257q61 -256 88 -256q5 0 11 11q37 68 71 273q27 170 27 268q0 18 -1 25.5t-1 18.5q0 25 7 25q10 0 18 -19q9 -25 9 -82
q0 -80 -16 -200q-20 -151 -42 -255l-5 -21q-5 -28 -13 -52q-18 -53 -70 -72q-23 -8 -44 -8z" />
    <glyph glyph-name="W" unicode="W" horiz-adv-x="802" 
d="M225 -43q-49 0 -90 34q-80 66 -92 214q-2 38 -2 77q0 26 2 72q3 117 40 235q16 44 51 74q26 22 53 22q15 0 30 -7q57 -27 57 -85q0 -36 -14 -83q-46 -179 -46 -375q0 -75 19 -108q9 -17 20 -17q25 0 54 79q13 37 39 158q20 100 39 163q13 38 46 38q21 0 40 -18
q14 -14 21 -39l5 -20q35 -132 56 -199q40 -124 84 -124q12 0 28 12q58 51 58 195q0 21 -2 57t-9 85q-12 84 -29.5 140.5t-50.5 129.5q-4 11 -4 17q0 11 13 11q37 0 64 -60q25 -56 40 -157q16 -108 16 -177q0 -34 -2 -77q-7 -104 -45 -165t-110 -61q-45 0 -86 35
q-53 43 -91 129q-24 51 -29.5 76.5t-9.5 26.5q-4 0 -7 -13q-8 -33 -14 -66q-20 -102 -45 -157q-34 -72 -97 -72z" />
    <glyph glyph-name="X" unicode="X" horiz-adv-x="494" 
d="M87 -42q-25 0 -37 23q-4 7 -4 15q0 24 86 167q37 61 37 68q0 2 -30 54q-64 113 -86 181t-22 122q0 52 18 81q12 21 35 21q10 0 22.5 -7t26.5 -23.5t25 -36.5q18 -31 39.5 -74t43 -87.5t39.5 -78.5q15 21 38 57q84 141 160 208q11 10 23 10q22 0 22 -21q0 -9 -10 -21
q-45 -51 -101 -127t-78 -113q-4 -8 -9 -15q-14 -20 -14 -33q0 -23 45 -98q65 -111 115 -145q28 -21 28 -39q0 -12 -8 -20q-15 -15 -46 -15q-58 0 -131 60q-26 21 -64 66q-23 26 -43 45q-24 -26 -50.5 -84t-41.5 -119q-7 -21 -28 -21z" />
    <glyph glyph-name="Y" unicode="Y" horiz-adv-x="512" 
d="M247 -64q-14 0 -52 7.5t-76 44t-38 81.5q0 26 10 46q14 27 36 27q7 0 14 -3.5t10 -15t3 -24.5q-2 -16 -2 -30q5 -58 53 -71q8 -2 16 -2q39 0 77 56q27 48 27 155q-3 124 -11 128q-7 0 -23 -28q-33 -53 -55 -73q-31 -31 -64 -31q-53 4 -86 37q-53 53 -53 161q0 49 9 98
q16 98 54 158q19 29 45 29q29 0 45 -34q5 -15 5 -34q0 -26 -14 -117q-14 -105 -14 -150q0 -88 28 -88q32 0 85 95q28 48 37 69q12 25 22 85q13 73 29.5 103.5t41.5 30.5q15 0 29 -18q15 -24 15 -45q0 -54 8 -169q9 -126 9 -181q0 -44 -3 -84q-12 -137 -97 -179
q-67 -34 -120 -34z" />
    <glyph glyph-name="Z" unicode="Z" horiz-adv-x="450" 
d="M157 -40q-55 0 -85 10q-54 18 -54 78q0 12 7 38.5t36.5 70.5t116.5 142q138 149 198 258q30 55 30 73q0 14 -15 14q-69 0 -207 -144q-58 -63 -95 -63q-19 0 -31 15q-16 20 -16 42q0 46 49 83q56 40 142 76.5t146 36.5q91 0 91 -82q0 -58 -49 -155t-157 -256
q-98 -145 -98 -153q0 -1 4 -1l105 51q62 35 91 35q47 0 57 -55q-1 -55 -52 -72l-54 -15q-87 -27 -160 -27z" />
    <glyph glyph-name="a" unicode="a" horiz-adv-x="368" 
d="M134 13q-45 0 -77.5 40t-32.5 112q0 59 17 115q29 97 98 131q24 12 49 12q2 0 16 -0.5t35.5 -14.5t32.5 -38.5t11 -52.5q0 -17 -8.5 -24t-17.5 -7h-6q-9 0 -21 39q-9 31 -17 31q-12 0 -24 -32q-17 -47 -24 -112q-5 -41 -5 -62q0 -36 12 -36q10 0 31 37q10 18 36 70
q15 36 48 36q17 0 27.5 -10t10.5 -27q0 -24 2 -43q2 -37 28 -94q3 -7 3 -14q0 -8 -6 -17q-11 -18 -38 -18q-31 0 -47.5 25t-20.5 60q0 9 -1 9q-3 0 -22 -36q-24 -45 -42 -62t-47 -17z" />
    <glyph glyph-name="b" unicode="b" horiz-adv-x="429" 
d="M140 7q-23 0 -43 22q-32 34 -48 117q-18 88 -18 196q0 111 22 194q14 56 40 87t52 31q21 0 40 -25q10 -14 14 -33.5t4.5 -41t0.5 -42.5q0 -26 -6 -86v-8q0 -16 8 -16q4 0 10 4q21 13 65 18q27 0 50 -10q88 -41 88 -171q0 -67 -22 -121q-45 -105 -115 -105q-31 0 -53 20
q-19 15 -19 29q0 15 18 15q7 0 14.5 -4t14.5 -4q17 0 31 55q12 49 12 111q0 42 -6 76q-9 45 -40 45h-17q-17 -1 -31 -28q-32 -64 -32 -227q0 -9 1.5 -22.5t1.5 -29.5t-4 -28q-7 -18 -33 -18z" />
    <glyph glyph-name="c" unicode="c" horiz-adv-x="332" 
d="M189 8q-30 0 -64 16q-38 19 -62 52q-44 56 -44 135q0 50 21 97q16 38 46 66q49 45 111 49q30 0 53 -11q51 -26 53 -99q0 -73 -46 -73q-25 0 -28 28q0 9 3 16q9 34 9 50q0 9 -5.5 21.5t-17.5 12.5q-18 0 -33 -26q-37 -53 -37 -128q0 -65 27 -114q24 -40 37 -40q10 0 28 30
q24 40 43 40t19 -25q0 -43 -45 -75q-29 -22 -68 -22z" />
    <glyph glyph-name="d" unicode="d" horiz-adv-x="406" 
d="M182 96q30 0 44 38q4 25 4 82q0 137 -21 137q-6 0 -14.5 -6t-16 -14.5t-10.5 -15.5q-29 -62 -29 -138q0 -83 43 -83zM316 4q-34 0 -48 48q-8 26 -14 27q-6 0 -13 -8q-43 -59 -95 -59q-10 0 -30.5 4.5t-49.5 35.5q-43 48 -43 151q4 70 39 128q37 64 101 81q10 3 20 3
q9 -1 16 -2t12 -1q9 0 11 2q4 0 6 3t6 26q4 39 13.5 86.5t28 81.5t47.5 34q23 0 38 -17t15 -49q0 -43 -3 -84q-21 -222 -21 -347q0 -50 6 -93q1 -4 1 -9q0 -15 -10.5 -28.5t-32.5 -13.5z" />
    <glyph glyph-name="e" unicode="e" horiz-adv-x="320" 
d="M165 219q18 5 36 42q12 26 21 55v1q7 20 8 35q0 10 -3.5 15t-10.5 5q-30 0 -47 -71q-8 -31 -8 -56q0 -18 4 -26zM178 15q-37 0 -73 19q-83 42 -83 146q0 54 22 109.5t64.5 88.5t90.5 33q24 0 47 -13t34 -36.5t11 -53.5q0 -49 -23 -96q-18 -34 -44 -56q-21 -17 -37 -17
q-6 0 -13 2l2 -19q6 -39 40 -39q11 0 28 6q20 8 31 8q2 0 10.5 -0.5t8.5 -14.5q0 -18 -21 -38q-31 -29 -95 -29z" />
    <glyph glyph-name="f" unicode="f" horiz-adv-x="345" 
d="M114 -240q-16 0 -31 15q-54 72 -54 383q0 187 51 242q40 44 115 44q50 0 84 -30q33 -34 33 -70q-2 -36 -46 -36q-26 0 -37 29q-18 57 -38 57q-32 0 -33 -85v-30q0 -57 6 -89q63 7 82 7q42 0 42 -38q0 -21 -16 -30t-59 -9h-40q2 -44 2 -93q0 -188 -25 -233
q-18 -33 -36 -34z" />
    <glyph glyph-name="g" unicode="g" horiz-adv-x="380" 
d="M197 -237q-13 0 -35.5 3.5t-46.5 21t-33 49.5l-1 11q0 10 5 19.5t12 9.5q12 0 30 -20q4 -8 25 -25q14 -11 28 -11q30 0 44 55q15 61 17 152q0 40 -1 70.5t-4 41.5q-9 -13 -20 -36t-25 -46q-32 -48 -76 -48q-31 0 -55 25q-37 39 -37 102q0 47 17 106q29 105 103 163
q42 31 83 31q52 0 83 -44q20 -30 21 -71q0 -30 -13 -63q-9 -20 -25 -20q-2 0 -7.5 1.5t-10 7t-4.5 10.5l1 4q4 25 8 58v9q0 39 -24 39q-45 0 -82 -141q-15 -63 -15 -96q0 -22 7 -22q9 0 30 39q8 16 19 32q21 33 47 33q25 0 47 -24q34 -36 54 -106q15 -57 15 -101
q0 -37 -8 -78q-18 -81 -75 -115q-44 -26 -98 -26z" />
    <glyph glyph-name="h" unicode="h" horiz-adv-x="463" 
d="M136 12q-22 0 -43 20q-32 32 -47 116q-15 78 -15 170q0 219 67 299q27 31 51 31q22 0 40 -24.5t20 -75.5q0 -22 -1 -42v-11q-4 -104 -14 -175q-3 -20 -5 -41q33 57 82 101q39 33 70 33q84 0 84 -155q0 -28 -9 -133l-1 -4q-2 -36 -14 -66q-15 -36 -46 -36t-50 15
q-27 22 -29 84q0 54 18 126q12 49 24 89q5 15 5 23q0 11 -11 11q-9 0 -25 -16q-32 -30 -55 -68q-41 -67 -47 -115q-4 -24 -4 -59l-1 -16q0 -43 -8 -62t-36 -19z" />
    <glyph glyph-name="i" unicode="i" horiz-adv-x="222" 
d="M133 10q-61 0 -83 68q-21 62 -21 171q0 102 43 143q18 15 38 15q19 -1 35 -13t23 -33q9 -36 10 -88q0 -52 -1 -103l-1 -73l1 -19q0 -34 -9 -51t-35 -17zM112 487q-20 0 -30.5 16t-10.5 44q0 19 7.5 33t20 20t23.5 6q19 0 33 -10.5t14 -32.5q0 -48 -35 -71q-12 -5 -22 -5z
" />
    <glyph glyph-name="j" unicode="j" horiz-adv-x="236" 
d="M-16 -258q-21 0 -47.5 7.5t-50.5 32.5t-34 66q-2 9 -2 18q0 22 9.5 42t24.5 20q4 0 8 -2q18 -11 26 -55q2 -18 9 -37q14 -34 37 -34q15 0 34 19q30 35 46 173q5 45 5 78q0 55 -3 99l-2 104q0 70 10.5 111t44.5 41q24 0 39 -14q17 -18 27 -56q12 -46 24 -126
q14 -92 14 -164q0 -226 -124 -297q-46 -26 -95 -26zM98 497q-25 0 -39 32q-7 20 -7 33q0 31 26 42q11 4 20 4q23 0 37 -18.5t14 -38.5q0 -32 -28 -48q-13 -6 -23 -6z" />
    <glyph glyph-name="k" unicode="k" horiz-adv-x="415" 
d="M138 3q-23 0 -44 21q-34 31 -51 172q-13 105 -13 224q0 143 27 182q23 34 56 34q30 0 49 -28.5t19 -111.5q0 -45 -6 -189q0 -69 1 -69q2 0 6 7q53 67 98 138q31 60 58 60q23 0 23 -28q-1 -28 -37 -72q-27 -32 -39 -50q48 -15 84 -101q26 -63 26 -112q0 -38 -20 -56
t-44 -18q-15 0 -31.5 8t-29.5 32t-14 66l5 109q0 40 -6 40q-2 0 -6 -4q-26 -31 -41 -70q-24 -62 -24 -108q-1 -18 -4 -34q-8 -42 -42 -42z" />
    <glyph glyph-name="l" unicode="l" horiz-adv-x="313" 
d="M195 9q-4 0 -21 1t-46 18t-50.5 46t-32.5 78q-15 68 -15 161q0 95 15 183q12 68 37 114q14 26 37 26l11 -1q43 -11 54 -55q6 -25 6 -85l-1 -15q0 -136 2 -198q5 -148 25 -192q7 -14 11 -14q6 0 10 12l12 49q2 10 5 18q10 18 21 18q8 0 16 -10q12 -16 12 -42
q0 -27 -14.5 -53.5t-43.5 -44.5q-24 -14 -50 -14z" />
    <glyph glyph-name="m" unicode="m" horiz-adv-x="669" 
d="M148 11q-24 0 -41 9q-81 54 -81 235q0 23 11 55q18 53 66 53l13 -1q27 -2 35 -27t12 -68q10 -73 22 -90l3 25q7 100 34 160q17 38 44 68t55 30q8 0 17 -3q30 -10 46 -27q23 -26 33 -82l5 -20q2 -18 11 -20h1q8 0 40.5 24.5t60.5 24.5q40 0 66 -40q33 -53 33 -122
q0 -19 -4 -47q-9 -67 -32.5 -89t-48.5 -22q-6 0 -16.5 2t-22.5 19q-20 25 -20 72q0 23 17 103l3 15q4 24 4 40q0 20 -6 20q-10 0 -24 -16q-18 -23 -32 -52q-8 -19 -17 -58q-2 -16 -9 -43q-11 -41 -23 -56.5t-33 -15.5q-12 0 -27 5q-32 11 -45 29q-16 23 -16 59q0 45 21 164
q0 3 6 30q5 32 5 40q0 21 -7 24q-7 0 -16 -8q-65 -65 -65 -211q0 -42 6 -71l3 -26q0 -14 -3 -25q-11 -40 -42 -55q-20 -10 -42 -11z" />
    <glyph glyph-name="n" unicode="n" 
d="M158 16q-33 0 -66 28q-68 60 -68 172q0 22 4 53q10 81 42 111q18 17 36 18q16 0 31.5 -9t26 -27.5t12.5 -42.5q0 -18 -1 -34.5t-1 -29.5v-14q2 -17 3 -17q3 0 18 39q34 89 76.5 133.5t85.5 44.5q44 0 65 -46q24 -56 24 -137q0 -37 -6 -83q-14 -96 -43 -115
q-18 -11 -39 -11q-47 0 -47 53l1 13q20 120 47 209q11 36 11 55q0 2 -0.5 14t-16.5 12q-21 0 -50 -35q-36 -41 -54 -115.5t-23 -153.5q-4 -39 -15 -57q-17 -28 -53 -28z" />
    <glyph glyph-name="o" unicode="o" horiz-adv-x="367" 
d="M220 99q9 0 20 9q46 37 46 126q0 63 -23 119q-16 37 -34 38q-10 0 -20 -16q-29 -45 -29 -131q0 -48 4 -79q7 -34 15.5 -50t20.5 -16zM174 16q-67 0 -114 66q-41 57 -41 136q0 34 13 72q25 77 80 120q35 26 81 26q77 0 115 -68q27 -49 27 -124q0 -74 -29 -133
q-47 -95 -132 -95z" />
    <glyph glyph-name="p" unicode="p" horiz-adv-x="431" 
d="M216 91q7 1 15 5q25 25 45.5 91t20.5 118q0 54 -30 54q-45 -2 -71 -78q-19 -55 -19 -107q0 -83 36 -83h3zM111 -240h-3q-12 0 -27 14q-57 65 -59 372q0 145 16.5 216.5t80.5 77.5q13 0 22 -9q28 -22 31 -60.5t7 -38.5q4 1 15 17q47 72 96 72q12 0 29 -4.5t40 -35.5
q41 -51 41 -131q0 -20 -5 -53q-10 -67 -69 -114q-50 -41 -99 -41q-20 0 -34 9q-5 2 -9 2q-12 0 -19 -81q-4 -135 -11 -160q-12 -47 -43 -52z" />
    <glyph glyph-name="q" unicode="q" horiz-adv-x="463" 
d="M164 70q7 0 18 10q16 13 26 32q28 48 47 113q15 51 15 88q0 49 -30 49q-12 0 -32 -14q-40 -32 -59 -91q-14 -41 -14 -90q0 -46 15 -86q5 -11 14 -11zM345 -236q-71 0 -71 267q0 43 2 93q-28 -61 -52.5 -83.5t-66.5 -22.5q-7 0 -20.5 1t-45.5 19.5t-49.5 53t-17.5 86.5
q0 54 19 111q23 61 63 98q49 40 96 40q52 0 93 -45l10 -11q21 70 71 70q27 0 35 -9q20 -18 20 -136q0 -46 -3 -108q-8 -145 -18 -215q-11 -135 -19 -160q-15 -46 -46 -49z" />
    <glyph glyph-name="r" unicode="r" horiz-adv-x="360" 
d="M162 -2h-4q-32 0 -61 29q-35 36 -52 84q-21 56 -21 114q0 102 46 180q17 19 37 22q21 0 27 -2q29 -11 37 -49q5 -27 5 -69v-32q0 -4 1 -4t3 3q10 20 21 47q19 49 35 65q20 22 48 22q36 0 57 -33q12 -20 12 -44q0 -35 -33 -37q-23 5 -30 15t-14 40q-2 13 -4 13q-1 0 -3 -3
q-20 -29 -40 -120q-18 -82 -18 -124v-49q-3 -65 -49 -68z" />
    <glyph glyph-name="s" unicode="s" horiz-adv-x="330" 
d="M176 -2q-48 0 -90 27q-20 15 -33 39q-8 13 -8 25q0 10 9 16.5t18 6.5q18 0 42 -20q17 -12 27 -12q17 0 17 22q0 27 -61 59q-20 12 -38 26q-43 32 -45 80q4 67 70 116q57 43 114 43q60 0 93 -39q19 -26 19 -68q0 -40 -20 -67q-13 -18 -38 -18l-10 1q-18 1 -18 25l2 57
q0 35 -16 35q-4 0 -8 -2q-45 -34 -45 -71q0 -44 69 -100q61 -50 61 -99q0 -31 -29 -55q-34 -27 -82 -27z" />
    <glyph glyph-name="t" unicode="t" horiz-adv-x="318" 
d="M200 14q-162 0 -162 238q0 99 14 204q19 199 91 199q21 0 38 -19t17 -51q0 -11 -2 -26l-4 -160q0 -32 23.5 -33.5t31.5 -1.5l11 1q27 0 27 -16q0 -12 -26 -17q-14 -3 -27 -8q-34 -14 -35 -27q-1 -6 -1 -17q0 -84 13 -149q8 -43 23 -43q16 0 30 41q10 22 22 22
q11 0 19.5 -15.5t8.5 -31.5q0 -28 -21 -48q-42 -40 -91 -42z" />
    <glyph glyph-name="u" unicode="u" horiz-adv-x="448" 
d="M156 24q-5 0 -20.5 2t-43.5 23q-31 27 -47 65q-22 49 -22 108q0 30 7 65q11 63 44 102q28 32 61 32q19 0 31 -13q16 -19 16 -50l-1 -11q-6 -114 -6 -139q0 -24 1 -46q5 -51 23 -52q15 0 36.5 38.5t40.5 100.5q0 2 1 3q6 21 10 45q7 44 18 64q14 29 40 29t34.5 -31.5
t14.5 -93.5q6 -77 26 -136q7 -21 7 -36q0 -8 -3.5 -21t-18 -21.5t-30.5 -8.5q-23 0 -39.5 10t-23.5 29q-12 28 -12 60v14q-1 0 -7 -11q-34 -57 -58 -81q-39 -39 -79 -39z" />
    <glyph glyph-name="v" unicode="v" horiz-adv-x="377" 
d="M209 8q-22 0 -50 8q-50 15 -80.5 48t-43.5 75t-13 86q0 50 13 98l2 5q13 43 26 61q16 24 46 24q24 0 41 -17q12 -13 16 -33q7 -50 10 -101q9 -116 23 -158q3 -18 10 -30q4 -8 10 -8q5 0 11 7q20 29 33 70.5t20 85t9 78.5q2 25 2 44q-1 19 -6 43l-1 16q0 16 7 16t23 -17
q29 -32 29 -103q0 -66 -28 -173q-21 -76 -50 -102q-25 -23 -59 -23z" />
    <glyph glyph-name="w" unicode="w" horiz-adv-x="690" 
d="M481 -25q-39 2 -65 13q-46 21 -73 75q-26 46 -34 98q-9 -20 -25 -60q-36 -87 -115 -87q-83 7 -122 100q-25 57 -25 119q0 29 6 59q12 67 50 100q26 22 59 22q34 0 45 -24q6 -16 6 -41q0 -20 -8 -75t-8 -81q0 -46 12 -85q9 -30 23 -30t34 34q37 77 44 150l1 43q4 93 59 93
q32 0 45 -36q8 -22 19 -74q28 -143 43 -183q20 -45 56 -59l15 -1q44 11 69 74q12 41 12 101q0 53 -12 103q-15 65 -55 81q-15 6 -15 15q5 15 23 15q81 -4 109 -111q14 -48 14 -106q0 -96 -46.5 -167t-140.5 -75z" />
    <glyph glyph-name="x" unicode="x" horiz-adv-x="357" 
d="M81 -3q-6 0 -13 3q-13 9 -13 23q0 6 3 12q48 85 56 93q13 18 13 28l-2 7q-3 11 -39 55q-16 19 -30 39q-42 57 -42 100q0 47 29 60v1l7 2q9 3 19 3q14 0 28 -6q22 -8 53 -47q5 -10 34 -48l27 -40q53 65 97 123q8 10 19 10q9 0 16 -5q10 -8 10 -21q0 -8 -5.5 -15.5
t-47.5 -63.5q-52 -68 -54 -82q0 -12 51 -93q40 -65 45 -72q9 -15 9 -25q0 -3 -2 -10t-12.5 -12t-21.5 -5h-11q-16 2 -59 40l-23 20q-33 33 -52 44q-24 -24 -63 -96q-9 -22 -26 -22z" />
    <glyph glyph-name="y" unicode="y" horiz-adv-x="457" 
d="M208 -238q-39 0 -68 18q-45 26 -53 83q0 49 42 51q18 0 35 -44q16 -51 48 -51q82 0 82 244q0 48 -6 65q-48 -64 -86 -85q-22 -13 -63 -13q-14 0 -46 19q-32 27 -49 67q-22 51 -22 112q0 108 53 169q29 33 61 33q18 0 31 -14q17 -19 17 -58q-7 -91 -7 -146q0 -25 1 -48
q5 -48 25 -48t44.5 31.5t28.5 45.5q14 35 16 97q0 51 2 73q4 47 39 47l12 1q83 0 83 -326l-1 -54q-3 -213 -177 -263q-21 -6 -42 -6z" />
    <glyph glyph-name="z" unicode="z" horiz-adv-x="335" 
d="M112 -1q-38 0 -56 16q-34 26 -34 63l1 13q0 57 110 201q30 40 56 80q-26 -3 -71 -16q-43 -15 -65 -15q-11 0 -20 5q-14 7 -14 23q0 36 112 53q42 6 83 6q39 0 64 -38q21 -31 21 -57q0 -36 -65 -119q-94 -126 -94 -142q0 -2 3 -2q18 0 71 38q25 23 51 23q11 0 22 -4
q26 -11 26 -39q0 -41 -96 -71q-46 -18 -105 -18z" />
    <glyph glyph-name="exclam" unicode="!" horiz-adv-x="220" 
d="M116 65q-22 0 -39 40q-41 97 -41 277q0 79 10 151q16 120 44 144q15 12 34 12q36 0 54 -55q10 -35 10 -126q0 -133 -16 -279q-14 -116 -30 -145q-11 -19 -26 -19zM113 -81q-17 0 -32 10q-24 15 -24 48q0 6 3 16t16 17.5t30 7.5q16 -1 30 -8q25 -14 25 -42q0 -9 -3 -19
q-12 -30 -45 -30z" />
    <glyph glyph-name="quotedbl" unicode="&#x22;" horiz-adv-x="299" 
d="M173 587q-7 0 -7 11l1 10l1 27q0 25 -2.5 41.5t-2.5 40.5q0 46 30 46q15 0 29 -11q27 -21 27 -61q0 -4 -1 -18.5t-18 -43.5q-8 -12 -18 -22q-22 -20 -39 -20zM79 580q-13 0 -18 21q0 6 -0.5 11.5t-7.5 67.5q-3 30 -3 42v5q10 20 32 20q10 0 23 -7t24 -24t11 -42
q0 -40 -29 -73q-18 -21 -32 -21z" />
    <glyph glyph-name="numbersign" unicode="#" horiz-adv-x="603" 
d="M305 187q57 0 69 10q9 11 11 52q0 17 -3 30t-11.5 16t-36.5 4q-29 0 -57 -1t-35 -4q-11 -7 -11 -61q0 -33 8 -39.5t66 -6.5zM165 -34q-18 0 -34 22q-25 29 -41 94q-8 28 -14 43q-6 7 -24 7l-12 -1q-19 0 -27 1t-9 10q2 19 51 24l14 2l1 18q0 26 -4 94q0 10 -6 11
q-13 0 -19.5 1t-12.5 1q-21 1 -21 13q0 3 3 7q6 10 26 10l17 -2h5q9 0 11 21q5 41 11 81l1 7q15 128 48 168q16 16 38 16q30 0 49 -29q18 -33 18 -134.5t6 -109.5q2 -2 21 -3q38 -2 68 -2q39 0 42 1q6 6 11 36l2 22q0 20 12 74q19 84 43 127q16 28 40 28q4 0 14 -2
q21 -7 30 -47q6 -33 8 -73l1 -10q2 -29 2 -57q0 -52 2 -89q1 -9 33 -14q29 -3 29 -12q0 -20 -23 -20q-10 -1 -31 -1t-21 -64v-20q4 -17 22 -17h18l17 1q17 -2 19 -18q0 -10 -30 -10q-18 0 -30.5 -1t-21.5 -13q-13 -22 -18 -100q-4 -55 -18 -71.5t-32 -16.5q-11 0 -23 6
q-20 11 -32 65q-8 34 -11 77q0 21 -3 30.5t-26 9.5q-60 0 -114 -9q-14 -2 -18.5 -62.5t-15.5 -87.5q-13 -32 -41 -32z" />
    <glyph glyph-name="dollar" unicode="$" horiz-adv-x="414" 
d="M118 161q20 0 31 4q18 5 18 30l-1 12q-3 24 -3 55q0 49 -4 68q-11 0 -36 -27q-16 -16 -29 -41q-19 -37 -19 -66q0 -35 43 -35zM273 88q9 0 24 17.5t23 33.5q12 20 12 32q0 9 -9 9q-28 0 -42.5 -28t-14.5 -51q0 -13 7 -13zM225 -43q-5 0 -13 10t-8 13q-9 13 -41 16
q-22 2 -33 7q-18 8 -18 19q0 7 17 8h19q22 0 33 6t11 24q0 7 -2 18t-3 19q-2 16 -5.5 25t-31.5 9h-20q-63 0 -110 34q-27 20 -27 48q0 21 12 45q22 44 76 93q31 28 52 43q20 10 25 32q9 57 29 92q26 48 58 48q44 0 67 -86l1 -4q4 -17 19 -23q49 -16 74 -53q13 -19 13 -33
q0 -16 -11 -23q-4 -3 -10 -3q-19 0 -32 33q-2 6 -3.5 13.5t-5.5 15.5t-18 8q-9 0 -15 -6q-8 -9 -8 -37q0 -20 -3 -54q-7 -67 -17 -93q-2 -6 -2 -9q0 -4 6 -4l2 1q33 0 53 -11q31 -19 31 -57q0 -31 -23 -61q-17 -22 -46 -39q-19 -10 -54 -24q-20 -9 -20 -32l-2 -12
q-5 -16 -16 -16z" />
    <glyph glyph-name="percent" unicode="%" horiz-adv-x="378" 
d="M43 -73q-17 0 -17 36q0 17 6 38q35 116 142 353q59 132 71 150q11 26 29.5 49.5t37.5 23.5q5 0 10 -2q26 -12 26 -42q0 -20 -10 -44q-35 -93 -85 -196q-177 -366 -210 -366zM115 429q2 0 6 9q9 23 9 58q0 34 -8 42q-15 -18 -15 -68q0 -41 8 -41zM111 377h-12
q-46 0 -72 26t-26 66q0 11 3 29t16 40.5t33 37.5l13 7q19 8 34 8q8 0 21.5 -5t26 -26.5t18 -49t5.5 -54.5q-1 -27 -6.5 -46t-20.5 -26t-33 -7zM331 4q18 17 18 51q0 17 -4 37q-7 33 -10 33q-4 0 -9 -32l-1 -4q-1 -8 -3 -23t-2 -37q0 -25 10 -25h1zM310 -41q-35 1 -57.5 15
t-32.5 34.5t-10 42.5q0 26 12 50q23 48 77 56q77 0 77 -85q0 -37 -8 -68q-11 -45 -58 -45z" />
    <glyph glyph-name="ampersand" unicode="&#x26;" horiz-adv-x="359" 
d="M189 35q6 1 24 14q28 20 28 36q0 9 -10.5 17.5t-19 13.5t-15.5 5l-7 -2q-9 -3 -17 -35q-3 -13 -3 -28q0 -21 14 -21h6zM139 283q3 1 10 9q46 59 83 134q26 53 26 78q0 32 -32 32q-22 0 -52 -15q-23 -12 -44 -32q-43 -41 -43 -89q0 -47 33 -102q7 -15 15 -15h4zM170 -11
l-12 1q-94 9 -94 93q0 23 5 46.5t11.5 42t10.5 27.5l2 6q0 6 -17 33q-26 33 -41 73.5t-15 75.5q0 67 50 123q27 29 61 48q49 27 96 27q20 0 44 -7t43 -34t21 -75q0 -53 -12 -94q-20 -65 -71 -132q-33 -45 -38 -65q0 -5 22 -30t31 -25q8 0 27 33q28 50 42 50q8 0 11 -12
q0 -5 -4 -15q-10 -27 -22.5 -49t-12.5 -32q0 -21 38 -38q10 -6 10 -14t-10 -8q-11 0 -28 11q-25 15 -31 15q-8 0 -24 -20q-49 -55 -93 -55z" />
    <glyph glyph-name="quotesingle" unicode="'" horiz-adv-x="186" 
d="M62 602q-9 3 -9 21q3 15 3 33q0 23 -3 40.5t-3 38.5q0 41 32 41q35 0 48 -41q6 -17 6 -32q0 -22 -11 -46q-27 -53 -63 -55z" />
    <glyph glyph-name="parenleft" unicode="(" horiz-adv-x="248" 
d="M246 -34q-30 0 -70 21q-61 32 -102 109q-48 90 -48 203q0 18 2 59q8 113 74 217q37 56 78 87q35 25 71 25q14 0 28 -2q24 -5 24 -14q0 -8 -17 -22q-29 -34 -41 -54q-57 -93 -74 -176q-14 -67 -14 -132q0 -49 8 -98q13 -77 36 -121q12 -25 42 -55q28 -21 28 -33
q0 -5 -7 -9.5t-18 -4.5z" />
    <glyph glyph-name="parenright" unicode=")" horiz-adv-x="261" 
d="M18 -34q-12 0 -18.5 4.5t-6.5 9.5q0 12 28 33q30 30 42 55q23 44 36 121q7 49 7 98q0 65 -13 132q-17 83 -74 176q-13 20 -41 54q-17 14 -17 22q0 9 24 14q14 2 28 2q36 0 71 -25q41 -31 78 -87q66 -104 73 -217q3 -41 3 -59q0 -113 -48 -203q-41 -77 -102 -109
q-41 -21 -70 -21z" />
    <glyph glyph-name="asterisk" unicode="*" horiz-adv-x="246" 
d="M124 593q-16 0 -16 14q0 10 -4 14q-7 -1 -15.5 -4t-14.5 -3h-5q-12 2 -12 10q0 5 3.5 12t9 14t6.5 11q0 5 -4.5 15.5t-13 23t-8.5 20.5q0 2 0.5 7t5.5 7t10 2q10 0 22 -4l20 -9q0 6 5.5 15.5t11.5 9.5t9 -3.5t5 -9t6 -11.5q28 10 41 10q10 0 10 -6q0 -8 -13.5 -26
t-13.5 -26q2 -4 9 -13.5t12.5 -18t5.5 -16.5q0 -10 -17 -10q-10 0 -28 4l-5 1q-8 0 -11 -15t-11 -15z" />
    <glyph glyph-name="plus" unicode="+" horiz-adv-x="280" 
d="M149 152h-5q-13 0 -22 10q-13 16 -18 62q-5 40 -14.5 46t-35.5 6q-17 0 -41 3q-25 5 -25 23q0 25 45 25l27 -1q19 0 26.5 8t7.5 41q0 10 -1 18.5t-1 18.5q0 20 6 44q12 37 61 39q20 0 37 -9q22 -13 22 -47q0 -9 -2 -24t-7.5 -37t-6.5 -39q0 -9 6 -13t34 -7q50 0 50 -22
q0 -4 -7 -9.5t-48 -10.5q-36 -6 -43 -10q-13 -8 -15 -51q-1 -15 -3 -29q-6 -33 -27 -35z" />
    <glyph glyph-name="comma" unicode="," horiz-adv-x="185" 
d="M77 -123h-3q-12 0 -22 8q-2 3 -2 8q0 6 3 21q2 9 2 25q0 10 -1.5 18.5t-1.5 15.5q0 3 0.5 9.5t4.5 15.5t15 17q6 4 13 4q13 0 27 -13q23 -21 23 -53q0 -21 -9 -39q-18 -33 -49 -37z" />
    <glyph glyph-name="hyphen" unicode="-" horiz-adv-x="283" 
d="M80 276q-33 0 -55 4t-27.5 14t-5.5 19q0 6 4 16.5t21.5 16.5t58.5 6q54 0 120 -6q76 -7 91 -22q8 -8 8 -17q0 -6 -6 -10.5t-74 -11.5q-77 -9 -135 -9z" />
    <glyph glyph-name="hyphen" unicode="&#xad;" horiz-adv-x="283" 
d="M80 276q-33 0 -55 4t-27.5 14t-5.5 19q0 6 4 16.5t21.5 16.5t58.5 6q54 0 120 -6q76 -7 91 -22q8 -8 8 -17q0 -6 -6 -10.5t-74 -11.5q-77 -9 -135 -9z" />
    <glyph glyph-name="period" unicode="." horiz-adv-x="197" 
d="M109 -109q-33 0 -48 19q-11 12 -11 30q0 13 5 26t18 22.5t25 9.5q23 0 39 -29q10 -24 10 -43q-1 -35 -38 -35z" />
    <glyph glyph-name="slash" unicode="/" horiz-adv-x="212" 
d="M-3 -100h-4q-11 0 -11 17q0 18 5 39q26 103 84 294q67 232 110 352q36 99 55 107q13 0 13 -24q0 -48 -43 -189q-70 -233 -141 -434q-23 -70 -37 -105q-21 -54 -31 -57z" />
    <glyph glyph-name="zero" unicode="0" horiz-adv-x="393" 
d="M234 10q12 0 27 20q49 65 49 181q0 94 -26 191q-10 38 -25 66q-13 21 -25 21q-18 0 -33 -46q-26 -83 -26 -177q0 -85 16 -165q1 -2 1 -5q16 -86 42 -86zM197 -37q-21 0 -48 5q-59 10 -92 80q-29 60 -29 144q0 42 8 84q16 87 59 158q49 80 119 93q73 0 111.5 -85.5
t38.5 -179.5q0 -83 -30 -175l-17 -49q-16 -43 -48 -61q-27 -14 -72 -14z" />
    <glyph glyph-name="one" unicode="1" horiz-adv-x="295" 
d="M161 -41l-46 1q-79 3 -79 39q0 19 51 22q25 1 29 12q2 4 2 19q-7 56 -7 124q0 57 12 177q10 65 23 112q-17 -13 -47 -52q-30 -44 -49 -49q-31 0 -31 29q0 19 17 40l15 21q65 74 114 74q7 0 19 -2q56 -8 56 -219l-1 -58q-5 -157 -16 -193q-5 -13 -6 -23q0 -12 18.5 -15.5
t35.5 -6.5q23 -6 23 -20q-1 -32 -133 -32z" />
    <glyph glyph-name="two" unicode="2" horiz-adv-x="318" 
d="M112 -36q-39 0 -60.5 14.5t-21.5 39.5q0 23 18 56.5t34 62.5q70 123 113 239q31 67 31 88q0 17 -19 17q-12 0 -26 -5q-49 -18 -79 -55.5t-30 -74.5v-7q0 -34 -15 -34q-4 0 -10 3.5t-15 20.5t-9 36q0 7 2 23q4 34 47 85q27 33 65.5 46t62.5 13t43.5 -13.5t32.5 -50.5
t13 -77q0 -99 -83 -261q-38 -76 -38 -97q7 1 17.5 4t22.5 6q36 14 57 14q5 0 14.5 -1.5t13.5 -15.5v-4q0 -13 -28 -29q-21 -13 -49 -22l-4 -2q-50 -19 -100 -19z" />
    <glyph glyph-name="three" unicode="3" horiz-adv-x="333" 
d="M158 -43q-14 0 -29 3q-40 7 -76 46.5t-36 64.5q0 21 15 30q6 4 14 4q5 0 12 -3t10 -8t3 -10q0 -8 -1 -16t-1 -13q0 -12 18 -12q53 2 104 53q47 47 47 94l-1 10q-8 20 -31 20q-13 0 -38.5 -8.5t-43.5 -8.5q-30 0 -41 18q-5 8 -5 17q0 24 27 49q4 3 18 18q102 110 102 150
q0 2 -0.5 9t-20.5 7q-27 -2 -54 -16q-60 -31 -80 -83q-10 -21 -24 -21q-9 0 -16 10t-7 27v13q2 37 70 84q64 43 113 43q43 0 66 -36.5t23 -86.5q0 -13 -3 -34q-5 -38 -42 -86q-11 -17 -11 -21q0 -6 18 -20l14 -12q48 -41 48 -105q0 -5 -0.5 -25t-15 -54.5t-42.5 -55.5
q-44 -35 -103 -35z" />
    <glyph glyph-name="four" unicode="4" horiz-adv-x="366" 
d="M273 -38h-5l-12 1q-16 5 -28 61q-14 62 -17 126q0 6 0.5 11t0.5 8q0 11 -9 11q-12 0 -19.5 -1t-16.5 -1q-8 0 -21 2q-74 19 -110 64q-28 35 -28 78q0 55 30 116q17 41 39.5 70t45.5 29q8 0 17 -3q31 -18 31 -44q0 -21 -20 -83q-15 -44 -28 -103q-5 -21 -5 -40q0 -9 2 -19
q4 -23 31 -23l11 1q37 7 45 20t16 94l7 53q8 61 32 108q16 31 38 31q17 0 28 -22q9 -26 9 -86l-3 -128q0 -16 11 -18q12 0 12 -18q0 -14 -14.5 -23t-17.5 -28.5t-7 -36t-7 -31.5q-14 -54 -19 -106q-3 -31 -8 -61q-3 -8 -11 -9z" />
    <glyph glyph-name="five" unicode="5" horiz-adv-x="341" 
d="M181 -33h-7q-51 0 -82 25q-18 15 -18 30q0 14 16 14q3 0 9 -1t14.5 -3t13.5 -3q23 0 46 40q40 72 40 131q0 55 -31 86q-10 8 -19 8q-12 0 -22 -11q-16 -19 -23 -43q-12 -40 -35 -40t-50 39q-14 22 -14 80q0 26 3.5 63t12.5 73t22 49t46.5 19t74.5 8h27q69 0 106 -7
q27 -7 27 -23q0 -5 -5.5 -10t-19.5 -5h-7q-12 2 -36 2q-105 0 -128 -30q-5 -7 -8 -32q-6 -53 -6 -79q0 -5 1 -9.5t19 -8.5l12 -1q61 -4 88 -20q43 -25 68 -95q14 -41 14 -84q0 -75 -46 -121q-41 -41 -103 -41z" />
    <glyph glyph-name="six" unicode="6" horiz-adv-x="316" 
d="M211 0q14 2 34 22q27 36 27 97q0 40 -12 74q-10 28 -29 45q-12 11 -27 11q-16 0 -29 -8q-22 -15 -22 -77q0 -49 7 -88q9 -48 25 -68q9 -8 26 -8zM186 -37q-67 0 -98 35q-58 63 -58 206q0 52 14 111q20 83 63 141q49 66 118 70q33 -2 33 -22q0 -12 -12 -32
q-54 -94 -73 -194l25 1q22 0 41 -10q78 -49 78 -162q0 -57 -21 -91q-32 -53 -110 -53z" />
    <glyph glyph-name="seven" unicode="7" horiz-adv-x="345" 
d="M147 -32q-28 0 -46 22q-14 15 -14 44t20 76q29 69 30 81q0 8 -3 9q-7 0 -15 -1q-5 -1 -12 -1h-8q-28 0 -28 20q0 33 54 33q9 0 15 -1q11 0 16 1q9 5 23 43q10 22 25 51q28 52 41 90q5 17 5 39q-4 7 -33 7q-33 0 -99 -11q-72 -14 -88 -16q-39 0 -39 24q0 18 18 27
q32 15 97 22q54 6 99 6q19 0 33 -2q34 -10 59 -50q22 -37 22 -88q0 -111 -101 -341l-4 -11q-16 -36 -31 -54.5t-36 -18.5z" />
    <glyph glyph-name="eight" unicode="8" horiz-adv-x="348" 
d="M198 202q18 8 37 70q10 35 26 111q8 36 8 54q0 31 -11 48.5t-30 18.5q-13 0 -31 -10q-35 -20 -56 -46q-39 -47 -50 -128q-3 -12 -3 -27q0 -11 16 -11q12 0 30 2q11 0 18.5 -3.5t10.5 -13.5t4.5 -21.5t3.5 -21.5t8 -16t16 -6h3zM210 -3q19 2 33 35q10 27 10 51
q-1 15 -4 21q-5 10 -24 10q-3 0 -5 1q-16 1 -23 9q-11 11 -11 37q-1 10 -3 17.5t-9 7.5q-8 0 -12.5 -10.5t-6.5 -26t-2 -30.5q0 -14 1 -20q0 -19 17.5 -60.5t38.5 -41.5zM156 -43q-64 2 -95 64q-26 52 -26 119q0 38 13 61q8 16 8 28q0 15 -10 37q-13 32 -13 56q0 35 28 89
q64 116 148 116q48 0 75 -32q37 -45 37 -119q0 -77 -39 -167q-16 -36 -16 -57q0 -19 11 -37q14 -26 14 -52q0 -72 -40 -92q-28 -14 -95 -14z" />
    <glyph glyph-name="nine" unicode="9" horiz-adv-x="371" 
d="M155 220l6 1q17 13 28 41q26 65 26 186q0 10 -1 22t-6 19.5t-12 7.5q-11 0 -28 -20q-13 -28 -21 -65q-13 -60 -13 -120q0 -41 6 -56.5t15 -15.5zM198 -39q-44 0 -70 27q-19 22 -19 49q0 13 10 20q5 3 9 3q15 0 31 -32l11 -17q7 -11 14 -11q15 0 30 45q20 63 20 163
q0 24 -4 24q-3 0 -15 -14q-33 -44 -69 -44q-25 0 -65 16q-68 32 -68 108q0 46 23 110q23 55 75 98q31 25 69 25q21 0 40 -15q1 0 5 -3l19 -17q2 0 6 8t10 16q11 17 27 17q33 -2 41 -49q3 -22 3 -56t1 -73q1 -47 1 -97q-1 -51 -5 -100q-11 -113 -50 -168q-29 -33 -80 -33z
" />
    <glyph glyph-name="colon" unicode=":" horiz-adv-x="122" 
d="M75 133h-4q-16 0 -34 6l-12 6q-20 13 -20 37q0 11 5 24.5t16 22.5t23 9q21 0 39.5 -17t18.5 -47q0 -37 -32 -41zM77 333q-29 0 -46 18q-13 12 -13 32q0 28 30 43q11 5 20 5q19 0 30 -13q18 -22 18 -48q0 -17 -10.5 -27t-28.5 -10z" />
    <glyph glyph-name="semicolon" unicode=";" horiz-adv-x="126" 
d="M38 108h-11q-8 0 -17 15l-1 6q0 13 15 47l6 15q10 28 23 41q7 8 20 8q9 0 20 -10q20 -18 20 -44q0 -29 -24.5 -53.5t-50.5 -24.5zM73 317q-9 0 -19 5q-34 15 -36 47q0 28 17 44q13 12 30 12q15 0 33 -15t18 -35q0 -16 -9 -34q-13 -24 -34 -24z" />
    <glyph glyph-name="semicolon" unicode="&#x37e;" horiz-adv-x="126" 
d="M38 108h-11q-8 0 -17 15l-1 6q0 13 15 47l6 15q10 28 23 41q7 8 20 8q9 0 20 -10q20 -18 20 -44q0 -29 -24.5 -53.5t-50.5 -24.5zM73 317q-9 0 -19 5q-34 15 -36 47q0 28 17 44q13 12 30 12q15 0 33 -15t18 -35q0 -16 -9 -34q-13 -24 -34 -24z" />
    <glyph glyph-name="less" unicode="&#x3c;" horiz-adv-x="306" 
d="M276 158q-31 0 -117 26q-99 29 -128 47q-34 25 -34 58q0 43 43 77q46 33 126 72q66 31 98 31q26 0 37 -16q6 -9 6 -20q0 -28 -24 -58q-8 -11 -44 -38q-7 -4 -13 -9q-54 -36 -117 -65q-20 -7 -20 -11q0 -3 9 -7q32 -11 65 -18q62 -16 85 -27q9 -2 32 -20q12 -10 12 -15
q0 -7 -16 -7z" />
    <glyph glyph-name="equal" unicode="=" horiz-adv-x="279" 
d="M69 342q-14 0 -28 1.5t-23 11.5q-13 15 -13 35q0 8 2 16l3 3q11 12 63 12q61 0 105 -6q53 0 81 -10t28 -31q0 -13 -21 -15t-43 -5q-107 -12 -154 -12zM78 221h-19q-47 0 -47 41q0 13 9 19q16 7 64 7q73 0 132 -12q54 -11 54 -28q0 -9 -22 -14q-34 -8 -67 -8q-25 0 -61 -3
z" />
    <glyph glyph-name="greater" unicode="&#x3e;" horiz-adv-x="306" 
d="M27 158q-16 0 -16 7q0 5 12 15q23 18 32 20q23 11 85 27q33 7 65 18q9 4 9 7q0 4 -20 11q-63 29 -117 65q-6 5 -13 9q-36 27 -44 38q-24 30 -24 58q0 11 6 20q11 16 38 16q31 0 97 -31q80 -39 126 -72q43 -34 43 -77q0 -33 -34 -58q-28 -18 -127 -47q-86 -26 -118 -26z
" />
    <glyph glyph-name="question" unicode="?" horiz-adv-x="375" 
d="M237 128h-4q-31 7 -39 36q-8 21 -8 53q0 71 54 229q18 53 29 94l3 11q8 37 8 47q0 6 -2 15q-2 18 -23 18q-7 0 -18 -3q-38 -11 -72.5 -39t-60 -65t-36.5 -75q-5 -22 -5 -52q0 -19 4 -37q7 -22 22 -40q11 -11 11 -18q0 -5 -11 -5q-30 0 -60 41q-27 37 -27 88q0 25 8 54
q14 58 76 123q41 39 85.5 62.5t75.5 23.5q43 0 88 -59q37 -53 37 -128l-1 -30q-4 -47 -34 -131l-51 -149q-18 -64 -49 -64zM227 -32q-13 0 -31 11q-35 21 -35 46q0 15 16 34q10 11 22 12q12 0 24 -6q36 -18 36 -52q0 -10 -4 -22q-9 -23 -28 -23z" />
    <glyph glyph-name="at" unicode="@" horiz-adv-x="703" 
d="M350 203q29 8 49 66q18 53 20 110q0 26 -5 45q-14 46 -34 46q-17 0 -32 -36q-21 -67 -21 -126q0 -25 3 -51q1 -3 1 -8q0 -9 1.5 -20.5t5 -18.5t9.5 -7h3zM315 -26h-10q-111 9 -183 81q-101 105 -101 248q0 8 1.5 47.5t30 107t78 123.5t117.5 93q85 41 158 42
q72 0 129 -35.5t94.5 -101.5t52.5 -157q2 -19 2 -41q0 -102 -36 -171q-24 -42 -67 -42q-37 0 -79 28q-56 36 -60 75q-21 -62 -40 -87q-24 -31 -59 -31q-11 0 -23 3q-112 29 -112 142q0 33 12 74q39 132 121 132q28 0 59 -20q10 -7 16 -15q10 -11 14 -11q5 0 10 8l14 24
q19 27 49 27q11 0 26 -7q35 -15 35 -43q0 -27 -4 -44v-6q-2 -11 -3 -33q-4 -56 -4 -83q0 -76 21 -76q8 0 22 17q44 58 44 142q0 44 -14 96q-55 199 -197 199q-2 0 -25 -1t-66 -20.5t-78 -53.5q-66 -66 -97 -149q-28 -72 -28 -149q0 -12 3 -63t46 -136q20 -39 61 -75
q35 -29 61 -29q17 0 43 12q35 16 57 19l16 1q11 -1 11 -8q0 -4 -5 -12q-13 -17 -34 -26q-34 -15 -79 -15z" />
    <glyph glyph-name="bracketleft" unicode="[" horiz-adv-x="278" 
d="M92 -44q-14 0 -26 4q-26 6 -37 51q-29 115 -29 264q0 169 38 336q5 32 14 51q12 27 67 29q47 3 92 7h6q15 0 29 -5.5t14 -15.5q0 -7 -14 -14t-27.5 -8.5t-24.5 -1.5q-16 0 -28 -3.5t-18 -18t-6 -46.5q3 -62 3 -163l-1 -120q0 -186 9 -286q1 -4 1 -7t1 -3t2.5 -0.5t4 -1.5
t9.5 -1h11q43 4 61 4q35 0 35 -22q0 -21 -42 -21l-33 1q-18 -1 -50 -5q-38 -4 -61 -4z" />
    <glyph glyph-name="backslash" unicode="\" horiz-adv-x="267" 
d="M252 -100q-10 3 -31 57q-14 35 -37 105q-72 201 -141 434q-43 141 -43 189q0 24 13 24q19 -8 55 -107q42 -120 110 -352q57 -191 84 -294q5 -21 5 -39q0 -17 -11 -17h-4z" />
    <glyph glyph-name="bracketright" unicode="]" horiz-adv-x="278" 
d="M186 -44q-22 0 -61 4q-32 4 -50 5l-32 -1q-43 0 -43 21q0 22 36 22q17 0 61 -4h11q6 0 8.5 1t4 1.5t2.5 0.5t1 3t1 7q10 100 10 286l-1 120q0 101 2 163q0 32 -6 46.5t-18 18t-28 3.5q-11 0 -24.5 1.5t-27.5 8.5t-14 14q1 10 14.5 15.5t28.5 5.5h6q45 -4 92 -7
q55 -2 68 -29q8 -19 13 -51q38 -167 38 -336q0 -149 -29 -264q-11 -45 -36 -51q-13 -4 -27 -4z" />
    <glyph glyph-name="asciicircum" unicode="^" horiz-adv-x="214" 
d="M173 501q-10 0 -23 4q-29 7 -43 50q-7 20 -16 76l-2 20q-9 52 -16 52q-11 0 -23 -116l-3 -33q-8 -26 -24 -26q-23 0 -23 35q0 37 25 108q14 39 32 64t45 25q12 0 25 -5q40 -19 59 -69q12 -36 23 -97q2 -15 5 -28q0 -60 -41 -60z" />
    <glyph glyph-name="underscore" unicode="_" horiz-adv-x="542" 
d="M132 -55q-79 0 -111 15q-21 10 -21 24q0 17 32 23t86 6l58 -1q77 -3 108 -7l113 -7q116 -7 130.5 -12t14.5 -12q0 -11 -28 -15t-53 -4h-13q-32 0 -127 -5q-119 -5 -189 -5z" />
    <glyph glyph-name="braceleft" unicode="{" horiz-adv-x="302" 
d="M226 -57h-9q-54 0 -106 38q-37 33 -37 120q0 22 2 55l2 47q0 22 -2 35q-5 13 -43 23l-20 6q-13 4 -13 11q0 4 17 10q32 9 51 28q25 25 25 84q0 27 -2 56q-1 24 -1 50v39q3 86 61 125q37 25 82 25q30 0 57 -16q12 -9 12 -14q0 -1 -1.5 -7t-29.5 -14l-3 -1q-37 -15 -55 -42
q-24 -36 -24 -100q0 -28 7 -66.5t7 -63.5q0 -63 -50 -88q-13 -5 -13 -11q0 -8 17 -26q24 -24 34 -46q13 -48 18 -125q1 -21 3 -41q4 -38 15 -43q7 -3 19 -5q34 -4 34 -16q0 -8 -15 -16.5t-39 -10.5z" />
    <glyph glyph-name="braceright" unicode="}" horiz-adv-x="302" 
d="M76 -57q-24 2 -39 10.5t-15 16.5q0 12 34 16q12 2 19 5q11 5 15 43q2 20 3 41q5 77 18 125q10 22 34 46q18 18 18 26q0 6 -14 11q-50 25 -50 88q0 25 7 63.5t7 66.5q0 64 -24 100q-18 27 -55 42l-3 1q-28 8 -29.5 14t-1.5 7q0 5 12 14q27 16 57 16q46 0 83 -25
q58 -39 60 -125v-39q0 -26 -1 -50q-2 -29 -2 -56q0 -59 25 -84q20 -19 51 -28q17 -6 17 -10q0 -7 -13 -11l-20 -6q-38 -10 -43 -23q-1 -9 -1 -21v-14l1 -47q2 -33 2 -55q0 -87 -37 -120q-52 -38 -106 -38h-9z" />
    <glyph glyph-name="asciitilde" unicode="~" horiz-adv-x="271" 
d="M48 214q-31 0 -44 27q-4 9 -4 20q0 28 26 68.5t63 40.5q55 0 92 -59q10 -15 20 -15q8 0 15.5 7t13.5 18t11 20q9 16 18 16h6q6 0 6 -27q0 -57 -20 -89q-14 -22 -37 -22q-28 0 -61 29q-26 26 -34 26q-11 0 -26.5 -30t-44.5 -30z" />
    <glyph glyph-name="exclamdown" unicode="&#xa1;" horiz-adv-x="152" 
d="M80 543q15 0 26 -19q16 -30 30 -145q16 -146 16 -279q0 -91 -10 -126q-18 -55 -54 -55q-19 0 -34 12q-28 23 -44 144q-10 72 -10 151q0 180 41 277q17 40 39 40zM77 689q33 0 45 -30q3 -10 3 -19q0 -28 -25 -42q-14 -7 -30 -8q-17 0 -30 7.5t-16 17.5t-3 16q0 32 24 48
q15 10 32 10z" />
    <glyph glyph-name="cent" unicode="&#xa2;" horiz-adv-x="359" 
d="M161 122q5 0 5 8v2q-6 87 -6 229q0 19 -3 19q-5 0 -16 -16q-40 -56 -40 -116q0 -40 15 -72q10 -24 23 -39t22 -15zM208 -49q-13 1 -20.5 14t-10.5 52l-1 28q0 19 -7 22q-2 0 -3 1q-86 22 -141 94q-25 36 -25 77q0 83 85 147q38 26 60 29q8 2 12.5 6t4.5 47q0 17 3 32
q5 32 38 35q22 -3 32 -16t10 -43q0 -19 2 -28q3 -14 39 -30q23 -11 44 -28q16 -19 24 -37q5 -12 5 -22q-1 -10 -11 -15t-18 -5q-14 0 -26 16t-15 36q-6 20 -20 20q-15 0 -16 -28q-5 -146 -5 -166q0 -58 7 -58q9 0 37 15l9 5q29 21 39 21q8 0 9 -7q0 -15 -21 -37
q-24 -25 -48 -35q-25 -12 -33 -31.5t-8 -46.5q0 -54 -31 -64z" />
    <glyph glyph-name="sterling" unicode="&#xa3;" horiz-adv-x="315" 
d="M170 -46h-49q-46 0 -78 1q-43 2 -43 14q0 13 21 34q15 18 29 39q20 29 20 52q0 14 -13.5 23t-13.5 16t11 14q14 10 21 12q11 8 11 18q0 5 -8.5 6.5t-16.5 3.5q-18 3 -18 11l1 3q7 10 29 16l9 2q11 0 12 15q3 35 8 73q11 84 43 139q38 67 115 87q4 2 26 2q15 0 15 -5
t-23 -17q-33 -14 -54 -42q-10 -13 -16 -43q-10 -43 -10 -78l1 -51v-17q0 -43 6.5 -49.5t27.5 -6.5l8 1q4 0 10 -1t13.5 -4.5t7.5 -6.5q0 -9 -31 -16q-18 -5 -22 -5q-15 -7 -15 -18q0 -8 15 -11q6 -2 15 -4t20 -4q19 -4 19 -9q0 -8 -48 -13q-19 0 -27 -10l-15 -29
q-6 -16 -14 -32q-12 -21 -33 -52q-13 -18 -13 -21t9 -3q7 0 23 2q27 3 91 8q29 0 43 -1q27 -2 27 -16q0 -8 -7 -15q-10 -10 -139 -12z" />
    <glyph glyph-name="yen" unicode="&#xa5;" horiz-adv-x="401" 
d="M299 -39q-4 0 -14 3.5t-21 33.5q-7 21 -11 45q0 10 -5 11l-12 -1h-23q-15 0 -15 11q0 7 6 13q16 11 29 11q5 0 9 2.5t4 25.5h-1q-2 2 -19 2h-20q-20 0 -24 9q0 9 7 14t35 11q14 2 17 5t3 17l-1 63q0 27 -4 27q-7 0 -15 -14q-36 -60 -89 -60q-38 0 -73 33q-25 23 -41 56
q-21 48 -21 99q0 39 12 78t30 59t39 20q17 0 33 -11.5t24.5 -32.5t8.5 -44v-10q-4 -55 -4 -110q0 -88 24 -88q14 0 33 32q24 41 35 92l3 17q12 70 25 107q6 15 20.5 26.5t33.5 11.5q35 0 47 -47q7 -39 7 -98l-1 -58q-4 -61 -10 -117q-2 -12 -2 -22q0 -12 0.5 -16t10.5 -6
q1 -2 6 -2q10 -2 10 -7l-1 -4q-6 -10 -19 -13q-19 -4 -19 -21q0 -11 25 -11q10 -1 20 -3.5t10 -10.5q0 -13 -22 -15l-2 -1q-20 -3 -29 -7.5t-11.5 -15t-3.5 -30.5q-5 -59 -34 -59z" />
    <glyph glyph-name="franc" unicode="&#x20a3;" horiz-adv-x="272" 
d="M114 -39h-5q-38 9 -52 46q-11 29 -14 74q-3 30 -5 37q-5 14 -12 14.5t-16.5 1t-9.5 8.5q0 9 6 15q5 2 11 3.5t11 4.5q10 5 10 29q0 2 -0.5 9t-14.5 17t-15 23q2 10 12 14.5t15 18.5t8 65q8 174 49 190q23 8 55 8q34 0 71 -4l14 -1q40 -5 40 -20q0 -7 -8 -9q-19 -3 -65 -3
l-15 1q-24 0 -34.5 -5t-10.5 -20l1 -12q3 -35 3 -72v-20q0 -59 11 -97q9 -2 23 -2q26 -2 41 -5q10 -4 10 -11q0 -10 -12 -16t-30 -6q-11 0 -18 -2q-15 -4 -15 -24q0 -21 11 -27.5t43 -6.5q11 0 20.5 -1t9.5 -9q0 -9 -29 -16l-32 -4q-16 -3 -16 -23q2 -22 2 -67
q0 -46 -8.5 -71t-39.5 -25z" />
    <glyph glyph-name="lira" unicode="&#x20a4;" horiz-adv-x="316" 
d="M170 -46h-49q-46 0 -78 1q-43 2 -43 14q0 13 21 34q15 18 29 39q32 73 36 135q0 5 -8 7q-35 6 -35 14q4 13 39 21q11 0 12 15q3 35 8 73q25 191 158 226q4 2 26 2q15 0 15 -5t-23 -17q-58 -25 -70 -85q-10 -43 -10 -78l1 -51q0 -60 6 -66t22 -6h31q14 0 14 -12
q0 -9 -31 -16l-23 -7q-14 -5 -14 -16q-9 -60 -35 -112q-12 -21 -33 -52q-13 -18 -13 -21t9 -3q7 0 23 2q27 3 91 8q29 0 43 -1q27 -2 27 -16q0 -8 -7 -15q-10 -10 -139 -12z" />
    <glyph glyph-name="Euro" unicode="&#x20ac;" horiz-adv-x="333" 
d="M312 -25h-11q-61 0 -112 22q-72 32 -104 110q-8 17 -16 29.5t-23 12.5q-9 0 -16.5 -1.5t-14.5 -1.5l-8 1q-10 2 -10 21q0 24 32 28l13 4q12 3 12 10q0 9 -40 9q-16 1 -16 16q0 13 7.5 17.5t21.5 7.5q23 3 30 28.5t22 58.5q33 74 86 124q62 59 142 61q33 0 33 -14
q0 -11 -18 -27.5t-55 -55.5q-32 -34 -53 -96q-10 -37 -10 -45q0 -10 7.5 -13.5t27.5 -5.5l21 -3q29 -3 29 -16q0 -2 -2 -6t-41 -9q-34 -5 -37.5 -7t-3.5 -13q0 -10 2.5 -15t28.5 -5q49 0 49 -20q0 -13 -40 -13l-10 -1h-6q-7 0 -7 -5q0 -13 15 -46q31 -69 62 -98
q19 -18 54 -30q7 -3 7 -5q0 -5 -24 -6z" />
    <glyph glyph-name="questiondown" unicode="&#xbf;" horiz-adv-x="370" 
d="M135 529h4q31 -7 39 -36q8 -21 8 -53q0 -71 -54 -229q-18 -53 -29 -94l-3 -11q-8 -37 -8 -47q0 -6 2 -15q2 -18 23 -18q7 0 18 3q38 11 72.5 39t60 65t36.5 75q5 22 5 52q0 20 -4 37q-7 22 -22 40q-11 11 -11 18q0 5 11 5q30 0 60 -41q27 -37 27 -88q0 -25 -8 -54
q-14 -58 -76 -123q-41 -39 -85.5 -62.5t-75.5 -23.5q-43 0 -88 59q-37 53 -37 128l1 30q4 47 34 131l51 149q18 64 49 64zM145 689q13 0 31 -11q35 -21 35 -46q0 -15 -16 -34q-10 -11 -22 -11h-3q-11 0 -21 5q-36 18 -36 52q0 10 4 22q9 23 28 23z" />
    <glyph glyph-name="multiply" unicode="&#xd7;" horiz-adv-x="250" 
d="M217 116q-3 0 -14.5 2t-31 16t-39.5 32q-16 14 -32 26q-11 -10 -35 -49q-5 -9 -10 -16q-8 -11 -20 -11q-14 0 -14 19q0 9 9 26l18 27q24 33 26 39q-1 5 -15 29q-59 102 -59 142q0 25 26 25q14 0 30 -11q21 -15 36 -35l24 -36q14 -23 20 -23q10 0 41 41l28 32q23 27 35 27
q9 0 9 -8q0 -18 -65 -100q-18 -23 -23 -32q25 -50 61 -86q11 -12 19.5 -24t8.5 -25q0 -8 -6 -14q-13 -13 -27 -13z" />
    <glyph glyph-name="divide" unicode="&#xf7;" horiz-adv-x="314" 
d="M73 235q-48 0 -66 20q-7 11 -7 19q0 11 12 16.5t73 5.5q93 0 168 -9q61 -8 61 -18q0 -13 -82 -19l-63 -4q-14 -1 -32 -4q-38 -7 -64 -7zM164 333q-18 0 -38 16q-24 19 -24 35q0 13 8 27q14 26 36 26q27 0 41 -23q9 -16 9 -38q0 -15 -8 -29t-24 -14zM163 95q-30 0 -51 20
q-16 14 -16 26q0 15 8.5 27.5t21 18t24.5 5.5q21 0 32 -18t11 -41q0 -36 -30 -38z" />
    <glyph glyph-name="minus" unicode="&#x2212;" horiz-adv-x="304" 
d="M88 227q-32 0 -54.5 4t-28 14.5t-5.5 20.5q0 22 26 33q17 5 58 5q55 0 121 -6q75 -7 91 -22q8 -9 8 -18q0 -6 -4 -8.5t-25 -6t-52.5 -7.5t-66.5 -6.5t-68 -2.5z" />
    <glyph glyph-name="Thorn" unicode="&#xde;" horiz-adv-x="482" 
d="M270 156q50 0 93 183q23 99 23 142q0 12 -1 26t-7.5 25t-20.5 11q-13 0 -35 -17q-67 -52 -104 -164q-18 -56 -18 -99q0 -41 25 -78q20 -29 45 -29zM150 -36q-16 0 -38 16q-17 16 -26 43q-13 38 -22 107q0 4 -1 7q-16 127 -16 220q0 91 14 195q0 3 1 5q2 34 16 78
q15 50 41 50h5q42 -16 58 -72q13 -48 16 -134q1 -13 4 -13t31 38q13 20 27 38q36 40 72 40q56 0 92 -71t36 -184q0 -60 -12 -103q-17 -48 -59 -87q-36 -33 -79 -33q-36 0 -73 31q-21 16 -34 18q-16 -7 -16 -107l-2 -36q-8 -45 -35 -46z" />
    <glyph glyph-name="germandbls" unicode="&#xdf;" horiz-adv-x="428" 
d="M182 14q34 0 76 77q35 67 35 106q0 30 -17 45.5t-59 15.5q-40 0 -55 -17q-8 -12 -8 -132q0 -95 28 -95zM153 402q11 3 29 26q31 40 68 108q19 37 26 55q9 24 9 39v9q0 12 -13 12q-5 0 -12 -2q-40 -16 -71 -60q-24 -34 -35 -83q-9 -42 -9 -79q0 -25 6 -25h2zM271 -39
q-24 0 -44 5q-28 7 -45 7q-12 0 -29.5 -3.5t-34.5 -3.5q-12 0 -23 6q-21 14 -46 148q-18 93 -18 175q0 116 37 209q28 58 49 90q38 57 81 82q25 15 52 15q24 0 49 -16q56 -41 56 -103q0 -84 -118 -230q-19 -23 -19 -28q0 -6 29 -14q21 -5 47 -18q56 -28 87 -61
q29 -43 29 -86q0 -35 -19 -74q-18 -42 -45 -68q-33 -32 -75 -32z" />
    <glyph glyph-name="Eth" unicode="&#xd0;" horiz-adv-x="549" 
d="M268 281q0 -109 -7 -174q-3 -24 -4 -45v-6v-9.5t2 -9.5t6 -4l4 1q30 10 56 40q50 58 76 161q14 57 14 113q0 67 -16 138q-21 89 -66 135q-32 31 -72 31q-17 0 -36 -9q-42 -17 -76 -74q-32 -53 -36 -98q-7 -56 -35 -56q-16 0 -29 14q-18 19 -18 57q0 40 25 91
q39 67 115 100q44 18 91 18q52 0 96 -20q89 -40 136 -145q33 -75 33 -162q0 -125 -79 -242q-65 -99 -168 -144q-44 -18 -83 -18l-22 2q-44 3 -58 77q-9 47 -9 115q0 57 5 113q-22 1 -38 4q-23 4 -28.5 14.5t-5.5 20.5q0 22 26 33q17 5 56 5q11 66 19 79q9 31 23.5 44.5
t38.5 13.5q29 0 44.5 -28.5t17.5 -69.5q1 -21 2 -47q55 -7 69 -20q8 -9 8 -18q0 -6 -4 -8.5t-25 -5.5q-19 -4 -48 -7z" />
    <glyph glyph-name="eth" unicode="&#xf0;" horiz-adv-x="412" 
d="M157 73q17 0 39 26q18 22 34 59q25 71 25 123q0 36 -12.5 60t-34.5 24q-19 0 -37.5 -22.5t-31.5 -71.5t-13 -123q0 -75 31 -75zM341 14q-4 0 -13.5 2t-26.5 22t-32 60q-13 -28 -27.5 -47t-34 -28t-45.5 -9q-76 0 -122 69q-28 40 -28 101q0 80 48 153q26 39 58 65
q26 19 62 19q25 0 66 -13q0 26 2 45.5t2 42.5q-38 0 -61 4t-31.5 9t-8.5 10q0 8 18 16q29 13 88 13q0 73 18 94.5t44 21.5q40 0 44 -55q1 -17 1 -56q42 0 65 -5q31 -7 31 -19q0 -4 -8 -10q-21 -17 -89 -17q-14 -115 -14 -301q0 -55 4 -83.5t15 -61.5q2 -5 2 -11q0 -3 -2 -9
t-8 -14t-17 -8z" />
    <glyph glyph-name="Ntilde" unicode="&#xd1;" horiz-adv-x="646" 
d="M232 -35q-26 0 -53 14q-50 26 -82 97q-18 38 -40 116q-23 89 -23 181t25 165q5 16 15 30q16 23 43 23l13 -1q35 -11 49 -49q8 -24 20 -112q15 -114 31 -178q8 -38 14 -38q5 0 10 31l17 115q11 79 26 128q29 101 79.5 150.5t102.5 49.5q137 0 137 -261q0 -80 -10 -165
q-22 -171 -75 -245q-25 -33 -55 -33q-14 0 -29 9t-25 29.5t-10 44.5v4q8 88 56 305q42 189 42 225q0 21 -7.5 33.5t-22.5 12.5q-44 0 -95 -90q-39 -71 -55 -187q-12 -79 -17 -210q-5 -99 -10 -127q-6 -34 -25.5 -50.5t-45.5 -16.5zM393 738q-27 0 -38 21q-3 7 -3 15
q0 22 21.5 52.5t54.5 30.5l15 -1q40 -8 64 -43q9 -12 18 -12q14 0 34 35q7 12 15 12h5q6 0 6 -23q0 -29 -11.5 -56t-38.5 -27q-20 0 -38 13q-8 5 -13.5 10t-13.5 9q-11 11 -16 11q-10 0 -23 -23.5t-38 -23.5z" />
    <glyph glyph-name="ntilde" unicode="&#xf1;" horiz-adv-x="476" 
d="M151 16q-33 0 -66 30q-68 63 -68 182q0 23 4 55q10 86 42 118q18 18 36 18q16 0 31.5 -9t26 -28.5t12.5 -45.5q0 -19 -1 -36t-1 -31v-15q2 -18 3 -18q3 0 18 41q34 94 76.5 141t85.5 47q44 0 65 -49q24 -59 24 -144q0 -39 -6 -88q-14 -101 -43 -121q-18 -12 -39 -12
q-47 0 -47 56l1 14q20 127 47 220q11 39 11 59q0 1 -0.5 14t-16.5 13q-21 0 -50 -37q-36 -43 -54 -122t-23 -162q-4 -41 -15 -60q-17 -30 -53 -30zM184 510q-27 0 -38 21q-3 7 -3 15q0 22 21.5 52.5t54.5 30.5l15 -1q40 -8 64 -43q9 -12 18 -12q14 0 34 35q7 12 15 12h5
q6 0 6 -23q0 -29 -11.5 -56t-38.5 -27q-20 0 -38 13q-8 5 -13.5 10t-13.5 9q-11 11 -16 11q-10 0 -23 -23.5t-38 -23.5z" />
    <glyph glyph-name="thorn" unicode="&#xfe;" horiz-adv-x="394" 
d="M213 236q6 0 13 3l5 4q18 16 36.5 73.5t18.5 104.5q0 51 -30 51q-40 -4 -61 -63q-17 -49 -17 -95q0 -32 8 -55t27 -23zM118 12h-2q-12 0 -26 15q-51 63 -51 275q0 129 11 219l1 7q13 148 70 148q12 0 21 -10q15 -18 19 -47q7 -46 12 -109l3 -35q0 -19 4 -19t13 13
q37 53 79 53q8 0 25.5 -4t43.5 -34q37 -49 37 -121q0 -17 -5 -47q-8 -59 -61 -96q-41 -29 -82 -29q-23 0 -38 11q-6 3 -10 3q-9 0 -15 -71q-5 -57 -11 -79q-11 -41 -38 -43z" />
    <glyph glyph-name="quoteleft" unicode="&#x2018;" horiz-adv-x="86" 
d="M74 776q9 -3 9 -21q-3 -15 -3 -33q0 -23 3 -40.5t3 -38.5q0 -41 -32 -41q-35 0 -48 41q-6 17 -6 32q0 22 11 46q26 53 63 55z" />
    <glyph glyph-name="quoteright" unicode="&#x2019;" horiz-adv-x="86" 
d="M12 602q-9 3 -9 21q3 15 3 33q0 23 -3 40.5t-3 38.5q0 41 32 41q35 0 48 -41q6 -17 6 -32q0 -22 -11 -46q-27 -53 -63 -55z" />
    <glyph glyph-name="quotesinglbase" unicode="&#x201a;" horiz-adv-x="86" 
d="M12 -90q-9 3 -9 21q3 15 3 33q0 23 -3 40.5t-3 38.5q0 41 32 41q35 0 48 -41q6 -17 6 -32q0 -22 -11 -46q-27 -53 -63 -55z" />
    <glyph glyph-name="quotedblleft" unicode="&#x201c;" horiz-adv-x="199" 
d="M75 756q8 0 8 -11l-1 -10l-1 -27q0 -25 2.5 -41.5t2.5 -40.5q0 -46 -30 -46q-15 0 -29 11q-27 21 -27 61q0 4 1 18.5t18 43.5q8 12 18 22q21 20 38 20zM170 763q13 0 18 -21q0 -6 0.5 -11.5t7.5 -66.5q3 -31 3 -42v-6q-10 -20 -32 -20q-10 0 -23 7t-24 24t-11 42
q0 40 29 74q17 20 32 20z" />
    <glyph glyph-name="quotedblright" unicode="&#x201d;" horiz-adv-x="199" 
d="M123 587q-7 0 -7 11l1 10l1 27q0 25 -2.5 41.5t-2.5 40.5q0 46 30 46q15 0 29 -11q27 -21 27 -61q0 -4 -1 -18.5t-18 -43.5q-8 -12 -18 -22q-22 -20 -39 -20zM29 580q-13 0 -18 21q0 6 -0.5 11.5t-7.5 67.5q-3 30 -3 42v5q10 20 32 20q10 0 23 -7t24 -24t11 -42
q0 -40 -29 -73q-18 -21 -32 -21z" />
    <glyph glyph-name="quotedblbase" unicode="&#x201e;" horiz-adv-x="199" 
d="M123 -73q-7 0 -7 11l1 10l1 27q0 25 -2.5 41.5t-2.5 40.5q0 46 30 46q15 0 29 -11q27 -21 27 -61q0 -4 -1 -18.5t-18 -43.5q-8 -12 -18 -22q-22 -20 -39 -20zM29 -80q-13 0 -18 21q0 6 -0.5 11.5t-7.5 67.5q-3 30 -3 42v5q10 20 32 20q10 0 23 -7t24 -24t11 -42
q0 -40 -29 -73q-18 -21 -32 -21z" />
    <glyph glyph-name="lessequal" unicode="&#x2264;" horiz-adv-x="311" 
d="M289 185q-42 0 -126 26q-93 27 -127 46q-34 25 -34 61q0 43 43 74q53 38 126 72q69 32 95 32q45 0 45 -39q0 -6 -2 -19q-8 -34 -66 -74l-13 -9q-27 -20 -56 -35q-56 -30 -68 -34t-12 -7v-1q0 -8 75 -25q79 -18 115 -46q13 -10 13 -16q0 -4 -8 -6zM115 98h-20
q-79 0 -90 14q-5 8 -5 16q0 18 26 27q16 3 53 3q59 0 126 -5q73 -7 90 -19l9 -13q0 -5 -5 -8t-33 -6q-87 -9 -151 -9z" />
    <glyph glyph-name="greaterequal" unicode="&#x2265;" horiz-adv-x="311" 
d="M22 185q-8 2 -8 6q0 6 13 16q36 28 115 46q75 17 75 25v1q0 3 -12 7t-68 34q-29 15 -56 35l-13 9q-58 40 -66 74q-2 13 -2 19q0 39 45 39q26 0 95 -32q73 -34 126 -72q43 -31 43 -74q0 -36 -34 -61q-34 -19 -127 -46q-84 -26 -126 -26zM196 98q-64 0 -151 9q-28 3 -33 6
t-5 8l9 13q17 12 90 19q68 5 126 5q37 0 53 -3q26 -9 26 -27q0 -8 -5 -16q-11 -14 -90 -14h-20z" />
    <glyph glyph-name="ordmasculine" unicode="&#xba;" horiz-adv-x="168" 
d="M103 416q6 0 14 10q24 33 24 91q0 47 -13 95q-11 44 -25 44q-9 0 -16 -23q-13 -42 -13 -89q0 -42 8 -82v-3q8 -43 21 -43zM84 393q-10 0 -23 2q-30 5 -46 40q-15 30 -15 72q0 66 34 121q24 40 59 47q37 0 56 -43t19 -90q0 -45 -23 -112q-14 -37 -61 -37z" />
    <glyph glyph-name="uni00B9" unicode="&#xb9;" horiz-adv-x="123" 
d="M67 353h-20q-35 2 -35 20q0 9 22 10q10 1 11.5 5t1.5 11q-5 38 -5 89q1 21 7 63q4 30 5 55q-8 -7 -20 -28t-20 -23q-14 0 -14 16q0 8 7 19q29 47 54 47l8 -1q28 -5 28 -138q0 -79 -5 -97q-2 -7 -2 -11q0 -6 8 -8t17 -4t9 -9q0 -16 -57 -16z" />
    <glyph glyph-name="uni00B2" unicode="&#xb2;" horiz-adv-x="135" 
d="M44 365q-20 0 -30.5 7.5t-10.5 19.5t9 28.5t17 31.5q35 61 57 119q15 34 15 44q0 9 -10 9q-5 0 -12 -3q-25 -9 -40 -28t-15 -37v-3q0 -18 -7 -18q-2 0 -5 2t-7.5 10.5t-4.5 18.5q0 3 1 11q2 17 23 43q14 16 33 22.5t31 6.5t22 -6.5t16.5 -25t6.5 -39.5q0 -49 -42 -130
q-19 -38 -19 -48q4 0 9 1.5t11 3.5q18 7 28 7q3 0 8 -1t7 -8v-2q0 -7 -14 -15q-11 -6 -25 -10l-2 -1q-25 -10 -50 -10z" />
    <glyph glyph-name="uni00B3" unicode="&#xb3;" horiz-adv-x="151" 
d="M71 381q-8 0 -15 1q-20 4 -38 23.5t-18 32.5q0 10 8 15q3 2 6 2t6.5 -1.5t5 -4.5t1.5 -5q0 -4 -0.5 -8t-0.5 -6q0 -6 9 -6q27 1 52 26q23 23 23 47v5q-4 10 -16 10q-6 0 -18.5 -4.5t-21.5 -4.5q-15 0 -21 10q-2 4 -2 8q0 12 13 25q2 1 9 8q51 55 51 75v5.5t-10 3.5
q-14 -1 -27 -8q-31 -16 -40 -42q-6 -11 -13 -11q-4 0 -7.5 5t-3.5 14v7q1 18 35 41q32 22 56 22q22 0 33.5 -18.5t11.5 -43.5q0 -6 -2 -17q-2 -19 -20 -42q-6 -9 -6 -11q0 -3 9 -10l7 -6q24 -20 24 -53v-12t-7.5 -27t-21.5 -28q-22 -17 -51 -17z" />
    <glyph glyph-name="dotlessi" unicode="&#x131;" horiz-adv-x="207" 
d="M109 -41h-2q-36 0 -53 121q-15 106 -15 263q0 235 37 311q18 31 45 31q7 0 17.5 -3t21 -15t10.5 -28q0 -126 -9 -315q-12 -259 -27 -326q-6 -39 -25 -39z" />
    <glyph glyph-name="endash" unicode="&#x2013;" horiz-adv-x="488" 
d="M88 276q-33 0 -55 4t-27.5 14t-5.5 19q0 6 4 16.5t21.5 16.5t58.5 6q50 0 272 -8q16 0 33 -1q76 -7 91 -22q8 -8 8 -17q0 -6 -6 -10.5t-74 -11.5q-262 -6 -320 -6z" />
    <glyph glyph-name="emdash" unicode="&#x2014;" horiz-adv-x="900" 
d="M88 276q-33 0 -55 4t-27.5 14t-5.5 19q0 6 4 16.5t21.5 16.5t58.5 6q50 0 684 -13q16 0 33 -1q76 -7 91 -22q8 -8 8 -17q0 -6 -6 -10.5t-74 -11.5q-674 -1 -732 -1z" />
    <glyph glyph-name="bullet" unicode="&#x2022;" horiz-adv-x="206" 
d="M126 163q-70 0 -103 40q-23 27 -23 65q0 28 11 55.5t39 48t52 20.5q49 0 84 -62q20 -49 20 -89q0 -78 -80 -78z" />
    <glyph glyph-name="periodcentered" unicode="&#xb7;" horiz-adv-x="97" 
d="M59 223q-33 0 -48 19q-11 12 -11 30q0 13 5 26t18 22.5t25 9.5q23 0 39 -29q10 -24 10 -43q-1 -35 -38 -35z" />
    <glyph glyph-name="guilsinglleft" unicode="&#x2039;" horiz-adv-x="310" 
d="M279 158q-31 0 -117 26q-99 29 -128 47q-34 25 -34 58q0 43 43 77q46 33 126 72q66 31 98 31q26 0 37 -16q6 -9 6 -20q0 -28 -24 -58q-8 -11 -44 -38q-7 -4 -13 -9q-54 -36 -117 -65q-20 -7 -20 -11q0 -3 9 -7q32 -11 65 -18q62 -16 85 -27q9 -2 32 -20q12 -10 12 -15
q0 -7 -16 -7z" />
    <glyph glyph-name="guilsinglright" unicode="&#x203a;" horiz-adv-x="310" 
d="M31 158q-16 0 -16 7q0 5 12 15q23 18 32 20q23 11 85 27q33 7 65 18q9 4 9 7q0 4 -20 11q-63 29 -117 65q-6 5 -13 9q-36 27 -44 38q-24 30 -24 58q0 11 6 20q11 16 38 16q31 0 97 -31q80 -39 126 -72q43 -34 43 -77q0 -33 -34 -58q-28 -18 -127 -47q-86 -26 -118 -26z
" />
    <glyph glyph-name="guillemotleft" unicode="&#xab;" horiz-adv-x="535" 
d="M278 178q-32 0 -116 26q-97 27 -128 47q-34 25 -34 60q0 43 43 74q47 33 126 73q66 31 97 31q3 0 15.5 -1.5t21.5 -14.5q6 -10 6 -22q0 -26 -23 -57q-10 -13 -45 -37l-12 -9q-48 -35 -118 -65q-19 -6 -19 -10v-1q0 -8 75 -26l44 -11q28 -8 53 -22q27 -18 30 -26
q1 -1 1 -3q0 -6 -17 -6zM519 207h-5q-15 0 -51 8q-89 22 -127 44q-25 18 -25 45q0 11 7 25q13 29 93 69q68 33 92 33q31 0 32 -26q0 -19 -17 -42q-7 -8 -31 -26q-67 -45 -101 -56q-9 -4 -9 -7q0 -5 55 -18q41 -11 60 -19q6 -2 23 -14q9 -7 9 -10q0 -4 -5 -6z" />
    <glyph glyph-name="guillemotright" unicode="&#xbb;" horiz-adv-x="535" 
d="M257 178q-17 0 -17 6q0 2 1 3q2 8 30 26q25 14 53 22l44 11q75 18 75 26v1q0 4 -19 10q-70 30 -118 65l-12 9q-35 24 -45 37q-23 31 -23 57q0 12 6 22q9 13 21.5 14.5t15.5 1.5q30 0 97 -31q79 -40 126 -73q43 -31 43 -74q0 -35 -34 -60q-31 -20 -128 -47
q-84 -26 -116 -26zM16 207q-6 2 -6 6q0 3 10 10q16 12 23 14q18 8 60 19q55 13 55 18q0 3 -9 7q-34 11 -101 56q-25 18 -31 26q-17 23 -17 42q1 26 31 26q24 0 93 -33q79 -40 93 -69q6 -14 6 -25q0 -27 -24 -45q-39 -22 -128 -44q-35 -8 -50 -8h-5z" />
    <glyph glyph-name="dagger" unicode="&#x2020;" horiz-adv-x="316" 
d="M180 -50h-5q-48 0 -55 75.5t-7 166.5t2 175l1 121l-23 1l-23 -1q-34 0 -44 1q-26 5 -26 23t28 22q17 0 37 -2l25 -1q28 0 35 10q3 4 8 41q2 21 6 43q8 52 29 52q22 0 32 -30q3 -17 4 -46q2 -47 7 -56q3 -4 15 -6q23 -4 49 -4q18 0 29.5 -6t11.5 -14q0 -11 -27 -16
q-14 -2 -49 -3q-27 -2 -30 -5q-4 -21 -4 -58q0 -84 13 -250q8 -102 10 -172q0 -21 -7.5 -34.5t-19 -19.5t-22.5 -7z" />
    <glyph glyph-name="copyright" unicode="&#xa9;" horiz-adv-x="671" 
d="M335 -38q-102 0 -183 69t-113 179q-16 55 -16 115q0 119 59.5 213.5t154.5 131.5q47 19 98 19q103 0 184 -69.5t113 -179.5q16 -55 16 -115q0 -119 -59.5 -213.5t-154.5 -131.5q-47 -18 -99 -18zM384 21q35 0 66 16q62 31 101.5 111t39.5 180q0 51 -10 97
q-22 94 -75.5 152.5t-121.5 58.5q-34 0 -65 -16q-62 -31 -101.5 -111t-39.5 -181q0 -50 10 -96q21 -93 75 -152t121 -59zM428 113h-9q-24 0 -48 8q-42 14 -67.5 41.5t-37.5 63.5t-12 76t10 80q19 83 68 127q31 26 74 26q15 0 35 -5q35 -9 50 -51q8 -22 8 -49q0 -12 -4 -22
t-11 -10q-13 0 -15 17l-5 27q-12 50 -41 50q-3 0 -12.5 -3t-22.5 -33q-18 -40 -18 -113q0 -105 42 -168q12 -17 21 -17q12 0 23 29q8 18 20 18q6 0 11.5 -4.5t5.5 -11.5q-4 -71 -65 -76z" />
    <glyph glyph-name="registered" unicode="&#xae;" horiz-adv-x="291" 
d="M145 481q-60 0 -102.5 43.5t-42.5 105.5t42.5 106t102.5 44q61 0 103.5 -44t42.5 -106q0 -61 -42.5 -105t-103.5 -44zM178 517q24 0 43.5 15t31.5 41t12 57q0 32 -12 57.5t-31.5 41t-43.5 15.5t-44 -15.5t-31.5 -41t-11.5 -57.5q0 -31 11.5 -57t31.5 -41t44 -15zM180 637
q3 0 16 14.5t13 18.5q0 3 -2 3q-4 0 -15.5 -9t-11.5 -25v-2zM177 558h-7q-41 0 -41 55q0 43 14 71q4 8 12 10q8 0 11.5 -12t6.5 -12q2 0 10 7q13 13 27 13q25 0 25 -25q0 -13 -10 -28q-16 -19 -16 -24q0 -2 4 -3q18 -7 18 -17q0 -8 -12 -8q-11 0 -37 14l3 -22
q0 -7 -1.5 -12.5t-6.5 -6.5z" />
    <glyph glyph-name="section" unicode="&#xa7;" horiz-adv-x="255" 
d="M134 292q8 11 8 26q0 23 -10.5 38.5t-15.5 15.5q-6 0 -6 -12v-9q0 -26 21 -57zM105 -37q-6 0 -24 2.5t-44 23.5q-13 13 -22 34q-7 16 -7 31q0 14 7 23.5t14 9.5t14.5 -6t28.5 -36q16 -25 21 -25q13 0 13 25q0 28 -22 104q-12 38 -31 80l-13 33q-13 32 -13 62q0 34 28 67
q7 8 7 12q0 6 -15.5 18.5t-24.5 24.5q-22 29 -22 80q0 79 78 141q39 30 80 30q51 0 79 -35q18 -24 18 -51q0 -14 -6.5 -27.5t-17.5 -13.5q-5 0 -13 5.5t-8 40.5q0 15 -7 28q-10 16 -25 16q-5 0 -13.5 -3.5t-20 -16t-18.5 -26.5q-19 -41 -19 -82q0 -8 3 -36t30 -70
q11 -16 26 -27t30 -19.5t27.5 -17.5t21 -21.5t9.5 -31.5q-6 -52 -60 -66q-4 -1 -10 -1q-15 -2 -15 -6l16 -26l26 -45q18 -36 18 -69q0 -45 -33.5 -89t-90.5 -44z" />
    <glyph glyph-name="degree" unicode="&#xb0;" horiz-adv-x="149" 
d="M85 678q3 0 9 4.5t12 18.5t6 30q0 19 -12 36q-13 -6 -19.5 -23.5t-6.5 -38.5q0 -27 11 -27zM82 649l-13 1q-69 17 -69 70q0 37 27 70q21 25 48 25q34 0 56 -32q18 -25 18 -57q0 -47 -32 -67q-14 -10 -35 -10z" />
    <glyph glyph-name="bar" unicode="|" horiz-adv-x="131" 
d="M70 -41h-2q-36 0 -53 121q-15 106 -15 263q0 235 37 311q18 31 45 31q7 0 17.5 -3t21 -15t10.5 -28q0 -126 -9 -315q-12 -259 -27 -326q-6 -39 -25 -39z" />
    <glyph glyph-name="Agrave" unicode="&#xc0;" 
d="M149 288q19 0 44 3q61 8 69 14q23 14 23 113q0 29 -11 171q-4 45 -29 45h-8q-7 0 -24 -17q-41 -43 -72 -164q-19 -73 -19 -122q0 -25 6 -39q3 -4 21 -4zM389 -43q-23 0 -40 5q-75 26 -80 191v57q0 21 -2 30t-18 9q-12 0 -58 -6q-57 -9 -62 -25q-1 -10 -1 -25
q0 -39 10 -113l4 -42q0 -18 -9 -30.5t-24 -14.5q-15 0 -32 13q-45 39 -45 177q0 112 34 240q37 137 98 210q45 53 102 53q14 0 38.5 -6.5t51.5 -40.5q30 -41 59 -211q28 -165 32 -307q0 -76 -5 -112q-9 -47 -53 -52zM285 734q-46 4 -75 50q-16 24 -16 47q0 34 34 34
q15 -2 26 -15q16 -20 30 -68l9 -26q5 -9 5 -15q0 -7 -13 -7z" />
    <glyph glyph-name="Aacute" unicode="&#xc1;" 
d="M149 288q19 0 44 3q61 8 69 14q23 14 23 113q0 29 -11 171q-4 45 -29 45h-8q-7 0 -24 -17q-41 -43 -72 -164q-19 -73 -19 -122q0 -25 6 -39q3 -4 21 -4zM389 -43q-23 0 -40 5q-75 26 -80 191v57q0 21 -2 30t-18 9q-12 0 -58 -6q-57 -9 -62 -25q-1 -10 -1 -25
q0 -39 10 -113l4 -42q0 -18 -9 -30.5t-24 -14.5q-15 0 -32 13q-45 39 -45 177q0 112 34 240q37 137 98 210q45 53 102 53q14 0 38.5 -6.5t51.5 -40.5q30 -41 59 -211q28 -165 32 -307q0 -76 -5 -112q-9 -47 -53 -52zM239 727q-7 0 -7 10l1 8q4 16 14 77q3 17 12 29
q13 18 31 18q9 0 20 -6q18 -10 18 -33q0 -29 -36 -70l-15 -12q-26 -21 -38 -21z" />
    <glyph glyph-name="Acircumflex" unicode="&#xc2;" 
d="M149 288q19 0 44 3q61 8 69 14q23 14 23 113q0 29 -11 171q-4 45 -29 45h-8q-7 0 -24 -17q-41 -43 -72 -164q-19 -73 -19 -122q0 -25 6 -39q3 -4 21 -4zM389 -43q-23 0 -40 5q-75 26 -80 191v57q0 21 -2 30t-18 9q-12 0 -58 -6q-57 -9 -62 -25q-1 -10 -1 -25
q0 -39 10 -113l4 -42q0 -18 -9 -30.5t-24 -14.5q-15 0 -32 13q-45 39 -45 177q0 112 34 240q37 137 98 210q45 53 102 53q14 0 38.5 -6.5t51.5 -40.5q30 -41 59 -211q28 -165 32 -307q0 -76 -5 -112q-9 -47 -53 -52zM214 733h-2q-5 0 -10.5 4.5t-5.5 16.5q0 11 4 29
q31 119 79 119q28 0 51 -37q14 -25 22 -60v-2q6 -20 6 -34q0 -5 -1 -13.5t-7.5 -15t-19.5 -6.5q-43 0 -55 36q-7 20 -7 62l1 13q0 9 -3 9q-5 0 -19 -51l-11 -35q-11 -33 -22 -35z" />
    <glyph glyph-name="Atilde" unicode="&#xc3;" 
d="M149 288q19 0 44 3q61 8 69 14q23 14 23 113q0 29 -11 171q-4 45 -29 45h-8q-7 0 -24 -17q-41 -43 -72 -164q-19 -73 -19 -122q0 -25 6 -39q3 -4 21 -4zM389 -43q-23 0 -40 5q-75 26 -80 191v57q0 21 -2 30t-18 9q-12 0 -58 -6q-57 -9 -62 -25q-1 -10 -1 -25
q0 -39 10 -113l4 -42q0 -18 -9 -30.5t-24 -14.5q-15 0 -32 13q-45 39 -45 177q0 112 34 240q37 137 98 210q45 53 102 53q14 0 38.5 -6.5t51.5 -40.5q30 -41 59 -211q28 -165 32 -307q0 -76 -5 -112q-9 -47 -53 -52zM194 723q-27 0 -38 21q-3 7 -3 15q0 22 21.5 52.5
t54.5 30.5l15 -1q40 -8 64 -43q9 -12 18 -12q14 0 34 35q7 12 15 12h5q6 0 6 -23q0 -29 -11.5 -56t-38.5 -27q-20 0 -38 13q-8 5 -13.5 10t-13.5 9q-11 11 -16 11q-10 0 -23 -23.5t-38 -23.5z" />
    <glyph glyph-name="Adieresis" unicode="&#xc4;" 
d="M149 288q19 0 44 3q61 8 69 14q23 14 23 113q0 29 -11 171q-4 45 -29 45h-8q-7 0 -24 -17q-41 -43 -72 -164q-19 -73 -19 -122q0 -25 6 -39q3 -4 21 -4zM389 -43q-23 0 -40 5q-75 26 -80 191v57q0 21 -2 30t-18 9q-12 0 -58 -6q-57 -9 -62 -25q-1 -10 -1 -25
q0 -39 10 -113l4 -42q0 -18 -9 -30.5t-24 -14.5q-15 0 -32 13q-45 39 -45 177q0 112 34 240q37 137 98 210q45 53 102 53q14 0 38.5 -6.5t51.5 -40.5q30 -41 59 -211q28 -165 32 -307q0 -76 -5 -112q-9 -47 -53 -52zM204 731h-2q-17 0 -36 13l-5 5q-12 15 -12 30t14 29
q18 16 36 17q17 0 30 -10q17 -13 17 -34q0 -14 -10 -29q-14 -21 -32 -21zM318 734q-9 0 -21 4q-28 8 -28 37q0 16 9 28q16 21 38 21t35 -24l1 -4q3 -6 5 -16q0 -46 -39 -46z" />
    <glyph glyph-name="Aring" unicode="&#xc5;" 
d="M149 288q19 0 44 3q61 8 69 14q23 14 23 113q0 29 -11 171q-4 45 -29 45h-8q-7 0 -24 -17q-41 -43 -72 -164q-19 -73 -19 -122q0 -25 6 -39q3 -4 21 -4zM389 -43q-23 0 -40 5q-75 26 -80 191v57q0 21 -2 30t-18 9q-12 0 -58 -6q-57 -9 -62 -25q-1 -10 -1 -25
q0 -39 10 -113l4 -42q0 -18 -9 -30.5t-24 -14.5q-15 0 -32 13q-45 39 -45 177q0 112 34 240q37 137 98 210q45 53 102 53q14 0 38.5 -6.5t51.5 -40.5q30 -41 59 -211q28 -165 32 -307q0 -76 -5 -112q-9 -47 -53 -52zM284 757q3 0 9 4.5t12 18.5t6 30q0 19 -12 36
q-13 -6 -19.5 -23.5t-6.5 -38.5q0 -27 11 -27zM281 728l-13 1q-69 17 -69 70q0 37 27 70q21 25 48 25q34 0 56 -32q18 -25 18 -57q0 -47 -32 -67q-14 -10 -35 -10z" />
    <glyph glyph-name="AE" unicode="&#xc6;" horiz-adv-x="738" 
d="M149 288q19 0 44 3q61 8 69 14q23 14 23 113q0 29 -11 171q-4 45 -29 45h-8q-7 0 -24 -17q-41 -43 -72 -164q-19 -73 -19 -122q0 -25 6 -39q3 -4 21 -4zM432 -17q-13 -23 -43 -26q-23 0 -40 5q-75 26 -80 191v57q0 21 -2 30t-18 9q-12 0 -58 -6q-57 -9 -62 -25
q-1 -10 -1 -25q0 -39 10 -113l4 -42q0 -18 -9 -30.5t-24 -14.5q-15 0 -32 13q-45 39 -45 177q0 112 34 240q37 137 98 210q45 53 102 53q14 0 38.5 -6.5t51.5 -40.5q20 -28 40 -114q25 72 65 105q19 16 51 28q56 22 116 22q10 0 30.5 -1.5t40.5 -14.5q27 -17 29 -49
q0 -15 -8 -26q-12 -18 -36 -18q-20 1 -61 17t-58 16q-30 -1 -41.5 -31.5t-11.5 -89.5q0 -26 1.5 -59t4.5 -60t4 -28q38 15 82 15q56 0 56 -32q0 -10 -7 -18q-19 -21 -82 -29q-30 -2 -42 -16q-9 -11 -9 -39q0 -129 47 -197q15 -20 33 -20q19 0 30 24q8 17 8 50q0 49 20 58
q9 4 22 4q11 0 20.5 -11t9.5 -35q0 -20 -9 -52q-21 -64 -67 -81q-27 -11 -71 -11l-26 1q-63 2 -105 36z" />
    <glyph glyph-name="OE" unicode="&#x152;" horiz-adv-x="877" 
d="M343 45q20 0 42 20q42 38 72 153q23 87 23 169q0 28 -4 70q-8 86 -48 143q-35 48 -89 50q-77 0 -114 -91q-30 -73 -30 -183q0 -131 44 -234q41 -95 104 -97zM504 146q-29 -82 -72 -126q-58 -55 -136 -55q-65 0 -122 35q-89 54 -124 173q-21 67 -21 144q0 106 41 202
q43 94 128 145q61 36 121 36q27 0 53 -7q89 -25 135 -123q11 -24 19 -50q27 88 72 126q19 16 51 28q56 22 116 22q10 0 30.5 -1.5t40.5 -14.5q27 -17 29 -49q0 -15 -8 -26q-12 -18 -36 -18q-20 1 -61 17t-58 16q-30 -1 -41.5 -31.5t-11.5 -89.5q0 -26 1.5 -59t4.5 -60t4 -28
q38 15 82 15q56 0 56 -32q0 -10 -7 -18q-19 -21 -82 -29q-30 -2 -42 -16q-9 -11 -9 -39q0 -129 47 -197q15 -20 33 -20q19 0 30 24q8 17 8 50q0 49 20 58q9 4 22 4q11 0 20.5 -11t9.5 -35q0 -20 -9 -52q-21 -64 -67 -81q-27 -11 -71 -11l-26 1q-70 2 -113 43q-25 26 -41 75
q-10 30 -16 65z" />
    <glyph glyph-name="Ccedilla" unicode="&#xc7;" horiz-adv-x="467" 
d="M174 -26q-88 36 -122 141q-22 65 -22 143q0 160 71.5 295.5t179.5 135.5q16 0 31 -4q76 -20 110 -117q23 -66 23 -139q-2 -73 -44 -119q-19 -19 -46 -19t-42 18q-9 14 -9 27q0 14 11 26q36 47 36 143q0 68 -19 109q-13 27 -32 27q-13 0 -28 -15q-39 -38 -64 -97
q-44 -101 -44 -220q0 -24 3.5 -71.5t27 -108.5t65.5 -101q20 -19 41 -19q19 2 31 18t12 17q33 51 59 54q33 -2 33 -39l-1 -13q-4 -45 -80 -73q-39 -14 -77 -17q-19 0 -37 2q0 -8 1 -13q1 -7 7 -9.5t19 -2.5h4q40 0 75 -32q28 -28 28 -69q0 -45 -24 -81q-27 -42 -65 -42
q-19 0 -42 9.5t-32 20.5q-6 7 -6 10t3 4.5t7 1.5q3 -1 8 -2.5t12 -1.5q3 0 7 2q28 19 44 68q10 34 10 63q0 23 -12 23q-2 0 -7.5 -2t-16.5 -12t-21 -19.5t-17.5 -15.5t-15.5 -6q-10 0 -18 8t-12 19q-6 14 -6 53q0 23 3 42z" />
    <glyph glyph-name="Egrave" unicode="&#xc8;" horiz-adv-x="401" 
d="M244 -46l-26 1q-70 2 -113 43q-25 26 -41 75q-26 81 -26 195q0 94 17 181q27 139 87 189q19 16 51 28q56 22 116 22q10 0 30.5 -1.5t40.5 -14.5q27 -17 29 -49q0 -15 -8 -26q-12 -18 -36 -18q-20 1 -61 17t-58 16q-30 -1 -41.5 -31.5t-11.5 -89.5q0 -26 1.5 -59t4.5 -60
t4 -28q38 15 82 15q56 0 56 -32q0 -10 -7 -18q-19 -21 -82 -29q-30 -2 -42 -16q-9 -11 -9 -39q0 -129 47 -197q15 -20 33 -20q19 0 30 24q8 17 8 50q0 49 20 58q9 4 22 4q11 0 20.5 -11t9.5 -35q0 -20 -9 -52q-21 -64 -67 -81q-27 -11 -71 -11zM268 722q-46 4 -75 50
q-16 24 -16 47q0 34 34 34q15 -2 26 -15q16 -20 30 -68l9 -26q5 -9 5 -15q0 -7 -13 -7z" />
    <glyph glyph-name="Eacute" unicode="&#xc9;" horiz-adv-x="401" 
d="M244 -46l-26 1q-70 2 -113 43q-25 26 -41 75q-26 81 -26 195q0 94 17 181q27 139 87 189q19 16 51 28q56 22 116 22q10 0 30.5 -1.5t40.5 -14.5q27 -17 29 -49q0 -15 -8 -26q-12 -18 -36 -18q-20 1 -61 17t-58 16q-30 -1 -41.5 -31.5t-11.5 -89.5q0 -26 1.5 -59t4.5 -60
t4 -28q38 15 82 15q56 0 56 -32q0 -10 -7 -18q-19 -21 -82 -29q-30 -2 -42 -16q-9 -11 -9 -39q0 -129 47 -197q15 -20 33 -20q19 0 30 24q8 17 8 50q0 49 20 58q9 4 22 4q11 0 20.5 -11t9.5 -35q0 -20 -9 -52q-21 -64 -67 -81q-27 -11 -71 -11zM235 725q-7 0 -7 10l1 8
q4 16 14 77q3 17 12 29q13 18 31 18q9 0 20 -6q18 -10 18 -33q0 -29 -36 -70l-15 -12q-26 -21 -38 -21z" />
    <glyph glyph-name="Ecircumflex" unicode="&#xca;" horiz-adv-x="401" 
d="M244 -46l-26 1q-70 2 -113 43q-25 26 -41 75q-26 81 -26 195q0 94 17 181q27 139 87 189q19 16 51 28q56 22 116 22q10 0 30.5 -1.5t40.5 -14.5q27 -17 29 -49q0 -15 -8 -26q-12 -18 -36 -18q-20 1 -61 17t-58 16q-30 -1 -41.5 -31.5t-11.5 -89.5q0 -26 1.5 -59t4.5 -60
t4 -28q38 15 82 15q56 0 56 -32q0 -10 -7 -18q-19 -21 -82 -29q-30 -2 -42 -16q-9 -11 -9 -39q0 -129 47 -197q15 -20 33 -20q19 0 30 24q8 17 8 50q0 49 20 58q9 4 22 4q11 0 20.5 -11t9.5 -35q0 -20 -9 -52q-21 -64 -67 -81q-27 -11 -71 -11zM210 724h-2q-5 0 -10.5 4.5
t-5.5 16.5q0 11 4 29q31 119 79 119q28 0 51 -37q14 -25 22 -60v-2q6 -20 6 -34q0 -5 -1 -13.5t-7.5 -15t-19.5 -6.5q-43 0 -55 36q-7 20 -7 62l1 13q0 9 -3 9q-5 0 -19 -51l-11 -35q-11 -33 -22 -35z" />
    <glyph glyph-name="Edieresis" unicode="&#xcb;" horiz-adv-x="401" 
d="M244 -46l-26 1q-70 2 -113 43q-25 26 -41 75q-26 81 -26 195q0 94 17 181q27 139 87 189q19 16 51 28q56 22 116 22q10 0 30.5 -1.5t40.5 -14.5q27 -17 29 -49q0 -15 -8 -26q-12 -18 -36 -18q-20 1 -61 17t-58 16q-30 -1 -41.5 -31.5t-11.5 -89.5q0 -26 1.5 -59t4.5 -60
t4 -28q38 15 82 15q56 0 56 -32q0 -10 -7 -18q-19 -21 -82 -29q-30 -2 -42 -16q-9 -11 -9 -39q0 -129 47 -197q15 -20 33 -20q19 0 30 24q8 17 8 50q0 49 20 58q9 4 22 4q11 0 20.5 -11t9.5 -35q0 -20 -9 -52q-21 -64 -67 -81q-27 -11 -71 -11zM218 726h-2q-17 0 -36 13
l-5 5q-12 15 -12 30t14 29q18 16 36 17q17 0 30 -10q17 -13 17 -34q0 -14 -10 -29q-14 -21 -32 -21zM332 729q-9 0 -21 4q-28 8 -28 37q0 16 9 28q16 21 38 21t35 -24l1 -4q3 -6 5 -16q0 -46 -39 -46z" />
    <glyph glyph-name="Igrave" unicode="&#xcc;" horiz-adv-x="272" 
d="M113 -39q-62 0 -81 1q-40 4 -40 28q0 26 37 30q25 0 34 3q19 5 19 33v5q-9 151 -9 262q0 19 1.5 88.5t20.5 207.5v1q0 6 -27 8l-25 4q-29 7 -29 22q0 20 41 30q27 6 92 6q51 0 97 -4t46 -25q0 -12 -12.5 -21t-31.5 -12q-41 -5 -41 -17q15 -116 15 -299q0 -130 -7 -264v-3
q0 -19 21 -21q10 -1 33 -1q20 -2 20 -19q0 -11 -9 -22q-19 -21 -165 -21zM178 726q-46 4 -75 50q-16 24 -16 47q0 34 34 34q15 -2 26 -15q16 -20 30 -68l9 -26q5 -9 5 -15q0 -7 -13 -7z" />
    <glyph glyph-name="Iacute" unicode="&#xcd;" horiz-adv-x="272" 
d="M113 -39q-62 0 -81 1q-40 4 -40 28q0 26 37 30q25 0 34 3q19 5 19 33v5q-9 151 -9 262q0 19 1.5 88.5t20.5 207.5v1q0 6 -27 8l-25 4q-29 7 -29 22q0 20 41 30q27 6 92 6q51 0 97 -4t46 -25q0 -12 -12.5 -21t-31.5 -12q-41 -5 -41 -17q15 -116 15 -299q0 -130 -7 -264v-3
q0 -19 21 -21q10 -1 33 -1q20 -2 20 -19q0 -11 -9 -22q-19 -21 -165 -21zM126 734q-7 0 -7 10l1 8q4 16 14 77q3 17 12 29q13 18 31 18q9 0 20 -6q18 -10 18 -33q0 -29 -36 -70l-15 -12q-26 -21 -38 -21z" />
    <glyph glyph-name="Icircumflex" unicode="&#xce;" horiz-adv-x="272" 
d="M113 -39q-62 0 -81 1q-40 4 -40 28q0 26 37 30q25 0 34 3q19 5 19 33v5q-9 151 -9 262q0 19 1.5 88.5t20.5 207.5v1q0 6 -27 8l-25 4q-29 7 -29 22q0 20 41 30q27 6 92 6q51 0 97 -4t46 -25q0 -12 -12.5 -21t-31.5 -12q-41 -5 -41 -17q15 -116 15 -299q0 -130 -7 -264v-3
q0 -19 21 -21q10 -1 33 -1q20 -2 20 -19q0 -11 -9 -22q-19 -21 -165 -21zM88 744h-2q-5 0 -11 5t-6 18q0 12 5 31q32 129 83 129q31 0 55 -41q15 -26 24 -64v-2q6 -22 6 -37q0 -6 -1 -15t-8 -16t-21 -7q-46 0 -59 39q-7 22 -7 67v14q0 10 -3 10q-5 0 -20 -55l-12 -38
q-11 -36 -23 -38z" />
    <glyph glyph-name="Idieresis" unicode="&#xcf;" horiz-adv-x="272" 
d="M113 -39q-62 0 -81 1q-40 4 -40 28q0 26 37 30q25 0 34 3q19 5 19 33v5q-9 151 -9 262q0 19 1.5 88.5t20.5 207.5v1q0 6 -27 8l-25 4q-29 7 -29 22q0 20 41 30q27 6 92 6q51 0 97 -4t46 -25q0 -12 -12.5 -21t-31.5 -12q-41 -5 -41 -17q15 -116 15 -299q0 -130 -7 -264v-3
q0 -19 21 -21q10 -1 33 -1q20 -2 20 -19q0 -11 -9 -22q-19 -21 -165 -21zM100 731h-2q-17 0 -36 13l-5 5q-12 15 -12 30t14 29q18 16 36 17q17 0 30 -10q17 -13 17 -34q0 -14 -10 -29q-14 -21 -32 -21zM214 734q-9 0 -21 4q-28 8 -28 37q0 16 9 28q16 21 38 21t35 -24l1 -4
q3 -6 5 -16q0 -46 -39 -46z" />
    <glyph glyph-name="Ograve" unicode="&#xd2;" horiz-adv-x="579" 
d="M343 45q20 0 42 20q42 38 72 153q23 87 23 169q0 28 -4 70q-8 86 -48 143q-35 48 -89 50q-77 0 -114 -91q-30 -73 -30 -183q0 -131 44 -234q41 -95 104 -97zM296 -35q-65 0 -122 35q-89 54 -124 173q-21 67 -21 144q0 106 41 202q43 94 128 145q61 36 121 36q27 0 53 -7
q89 -25 135 -123q39 -83 39 -192q0 -84 -24 -174q-33 -125 -90 -184q-58 -55 -136 -55zM336 734q-46 4 -75 50q-16 24 -16 47q0 34 34 34q15 -2 26 -15q16 -20 30 -68l9 -26q5 -9 5 -15q0 -7 -13 -7z" />
    <glyph glyph-name="Oacute" unicode="&#xd3;" horiz-adv-x="579" 
d="M343 45q20 0 42 20q42 38 72 153q23 87 23 169q0 28 -4 70q-8 86 -48 143q-35 48 -89 50q-77 0 -114 -91q-30 -73 -30 -183q0 -131 44 -234q41 -95 104 -97zM296 -35q-65 0 -122 35q-89 54 -124 173q-21 67 -21 144q0 106 41 202q43 94 128 145q61 36 121 36q27 0 53 -7
q89 -25 135 -123q39 -83 39 -192q0 -84 -24 -174q-33 -125 -90 -184q-58 -55 -136 -55zM284 737q-7 0 -7 10l1 8q4 16 14 77q3 17 12 29q13 18 31 18q9 0 20 -6q18 -10 18 -33q0 -29 -36 -70l-15 -12q-26 -21 -38 -21z" />
    <glyph glyph-name="Ocircumflex" unicode="&#xd4;" horiz-adv-x="579" 
d="M343 45q20 0 42 20q42 38 72 153q23 87 23 169q0 28 -4 70q-8 86 -48 143q-35 48 -89 50q-77 0 -114 -91q-30 -73 -30 -183q0 -131 44 -234q41 -95 104 -97zM296 -35q-65 0 -122 35q-89 54 -124 173q-21 67 -21 144q0 106 41 202q43 94 128 145q61 36 121 36q27 0 53 -7
q89 -25 135 -123q39 -83 39 -192q0 -84 -24 -174q-33 -125 -90 -184q-58 -55 -136 -55zM259 749h-2q-5 0 -11 5t-6 18q0 12 5 31q32 129 83 129q31 0 55 -41q15 -26 24 -64v-2q6 -22 6 -37q0 -6 -1 -15t-8 -16t-21 -7q-46 0 -59 39q-7 22 -7 67v14q0 10 -3 10q-5 0 -20 -55
l-12 -38q-11 -36 -23 -38z" />
    <glyph glyph-name="Otilde" unicode="&#xd5;" horiz-adv-x="579" 
d="M343 45q20 0 42 20q42 38 72 153q23 87 23 169q0 28 -4 70q-8 86 -48 143q-35 48 -89 50q-77 0 -114 -91q-30 -73 -30 -183q0 -131 44 -234q41 -95 104 -97zM296 -35q-65 0 -122 35q-89 54 -124 173q-21 67 -21 144q0 106 41 202q43 94 128 145q61 36 121 36q27 0 53 -7
q89 -25 135 -123q39 -83 39 -192q0 -84 -24 -174q-33 -125 -90 -184q-58 -55 -136 -55zM232 738q-27 0 -38 21q-3 7 -3 15q0 22 21.5 52.5t54.5 30.5l15 -1q40 -8 64 -43q9 -12 18 -12q14 0 34 35q7 12 15 12h5q6 0 6 -23q0 -29 -11.5 -56t-38.5 -27q-20 0 -38 13
q-8 5 -13.5 10t-13.5 9q-11 11 -16 11q-10 0 -23 -23.5t-38 -23.5z" />
    <glyph glyph-name="Odieresis" unicode="&#xd6;" horiz-adv-x="579" 
d="M343 45q20 0 42 20q42 38 72 153q23 87 23 169q0 28 -4 70q-8 86 -48 143q-35 48 -89 50q-77 0 -114 -91q-30 -73 -30 -183q0 -131 44 -234q41 -95 104 -97zM296 -35q-65 0 -122 35q-89 54 -124 173q-21 67 -21 144q0 106 41 202q43 94 128 145q61 36 121 36q27 0 53 -7
q89 -25 135 -123q39 -83 39 -192q0 -84 -24 -174q-33 -125 -90 -184q-58 -55 -136 -55zM270 739h-2q-17 0 -36 13l-5 5q-12 15 -12 30t14 29q18 16 36 17q17 0 30 -10q17 -13 17 -34q0 -14 -10 -29q-14 -21 -32 -21zM384 742q-9 0 -21 4q-28 8 -28 37q0 16 9 28q16 21 38 21
t35 -24l1 -4q3 -6 5 -16q0 -46 -39 -46z" />
    <glyph glyph-name="Oslash" unicode="&#xd8;" horiz-adv-x="579" 
d="M453 647q32 -30 54 -77q39 -83 39 -192q0 -84 -24 -174q-33 -125 -90 -184q-58 -55 -136 -55q-31 0 -59 8q-18 -43 -27 -46h-4q-11 0 -11 17q0 18 5 39q0 1 1 3q-14 6 -27 14q-89 54 -124 173q-21 67 -21 144q0 106 41 202q43 94 128 145q61 36 121 36q27 0 53 -7
q22 -6 41 -16q22 53 36 59q13 0 13 -24q0 -22 -9 -65zM242 135q18 64 42 142q67 232 110 352q1 2 1 3q-25 17 -56 18q-77 0 -114 -91q-30 -73 -30 -183q0 -131 44 -234zM437 586q-8 -29 -18 -63q-70 -233 -141 -434q-1 -4 -3 -8q30 -35 68 -36q20 0 42 20q42 38 72 153
q23 87 23 169q0 28 -4 70q-7 76 -39 129z" />
    <glyph glyph-name="Ugrave" unicode="&#xd9;" horiz-adv-x="654" 
d="M386 682q-46 4 -75 50q-16 24 -16 47q0 34 34 34q15 -2 26 -15q16 -20 30 -68l9 -26q5 -9 5 -15q0 -7 -13 -7zM265 -48h-3q-39 0 -77 21q-78 45 -112 173q-27 100 -27 230v45q0 145 39 218q24 46 62 46h6q47 -6 59 -38q7 -20 7 -51l-2 -35q0 -33 -7 -80q-7 -57 -7 -111
q0 -105 12 -185q16 -104 52 -146q17 -20 39 -20q65 0 124 234q11 46 35 181q30 186 58 217q14 16 32 16q43 0 43 -97q0 -27 -1 -66q-3 -36 -3 -64v-76q0 -29 0.5 -73t6 -101.5t17.5 -113.5q2 -12 2 -21q0 -15 -7 -29q-11 -22 -41 -22q-32 0 -55 31q-18 23 -35 84l-7 23
q-3 15 -7 15q-3 0 -6 -7q-71 -198 -197 -198z" />
    <glyph glyph-name="Uacute" unicode="&#xda;" horiz-adv-x="654" 
d="M346 688q-7 0 -7 10l1 8q4 16 14 77q3 17 12 29q13 18 31 18q9 0 20 -6q18 -10 18 -33q0 -29 -36 -70l-15 -12q-26 -21 -38 -21zM265 -48h-3q-39 0 -77 21q-78 45 -112 173q-27 100 -27 230v45q0 145 39 218q24 46 62 46h6q47 -6 59 -38q7 -20 7 -51l-2 -35q0 -33 -7 -80
q-7 -57 -7 -111q0 -105 12 -185q16 -104 52 -146q17 -20 39 -20q65 0 124 234q11 46 35 181q30 186 58 217q14 16 32 16q43 0 43 -97q0 -27 -1 -66q-3 -36 -3 -64v-76q0 -29 0.5 -73t6 -101.5t17.5 -113.5q2 -12 2 -21q0 -15 -7 -29q-11 -22 -41 -22q-32 0 -55 31
q-18 23 -35 84l-7 23q-3 15 -7 15q-3 0 -6 -7q-71 -198 -197 -198z" />
    <glyph glyph-name="Ucircumflex" unicode="&#xdb;" horiz-adv-x="654" 
d="M300 702h-2q-5 0 -11 5t-6 18q0 12 5 31q32 129 83 129q31 0 55 -41q15 -26 24 -64v-2q6 -22 6 -37q0 -6 -1 -15t-8 -16t-21 -7q-46 0 -59 39q-7 22 -7 67v14q0 10 -3 10q-5 0 -20 -55l-12 -38q-11 -36 -23 -38zM265 -48h-3q-39 0 -77 21q-78 45 -112 173
q-27 100 -27 230v45q0 145 39 218q24 46 62 46h6q47 -6 59 -38q7 -20 7 -51l-2 -35q0 -33 -7 -80q-7 -57 -7 -111q0 -105 12 -185q16 -104 52 -146q17 -20 39 -20q65 0 124 234q11 46 35 181q30 186 58 217q14 16 32 16q43 0 43 -97q0 -27 -1 -66q-3 -36 -3 -64v-76
q0 -29 0.5 -73t6 -101.5t17.5 -113.5q2 -12 2 -21q0 -15 -7 -29q-11 -22 -41 -22q-32 0 -55 31q-18 23 -35 84l-7 23q-3 15 -7 15q-3 0 -6 -7q-71 -198 -197 -198z" />
    <glyph glyph-name="Udieresis" unicode="&#xdc;" horiz-adv-x="654" 
d="M316 707h-2q-17 0 -36 13l-5 5q-12 15 -12 30t14 29q18 16 36 17q17 0 30 -10q17 -13 17 -34q0 -14 -10 -29q-14 -21 -32 -21zM430 710q-9 0 -21 4q-28 8 -28 37q0 16 9 28q16 21 38 21t35 -24l1 -4q3 -6 5 -16q0 -46 -39 -46zM265 -48h-3q-39 0 -77 21q-78 45 -112 173
q-27 100 -27 230v45q0 145 39 218q24 46 62 46h6q47 -6 59 -38q7 -20 7 -51l-2 -35q0 -33 -7 -80q-7 -57 -7 -111q0 -105 12 -185q16 -104 52 -146q17 -20 39 -20q65 0 124 234q11 46 35 181q30 186 58 217q14 16 32 16q43 0 43 -97q0 -27 -1 -66q-3 -36 -3 -64v-76
q0 -29 0.5 -73t6 -101.5t17.5 -113.5q2 -12 2 -21q0 -15 -7 -29q-11 -22 -41 -22q-32 0 -55 31q-18 23 -35 84l-7 23q-3 15 -7 15q-3 0 -6 -7q-71 -198 -197 -198z" />
    <glyph glyph-name="Ydieresis" unicode="&#x178;" horiz-adv-x="512" 
d="M263 -43q-97 0 -150 51q-38 36 -38 81q0 26 10 46q14 27 36 27q7 0 14 -3.5t10 -15t3 -24.5q-2 -16 -2 -30q0 -39 32 -67q18 -16 40 -16t48 12q59 31 59 189l-1 40q-2 45 -4 55q0 30 -6 33q-7 0 -23 -28q-33 -53 -55 -73q-31 -31 -64 -31l-12 1q-46 8 -74 36t-40.5 70.5
t-12.5 90.5q0 49 9 98q16 98 54 158q19 29 45 29q29 0 45 -34q5 -15 5 -34q0 -26 -10 -84l-8 -66q-10 -72 -10 -117q0 -88 28 -88q10 0 24 12q28 24 61 83q28 48 37 69q12 25 22 85q13 73 29.5 103.5t41.5 30.5q15 0 29 -18q15 -24 15 -45q0 -54 8 -169q9 -126 9 -181
q0 -44 -3 -84q-12 -137 -99 -173q-46 -19 -102 -19zM242 715h-2q-17 0 -36 13l-5 5q-12 15 -12 30t14 29q18 16 36 17q17 0 30 -10q17 -13 17 -34q0 -14 -10 -29q-14 -21 -32 -21zM356 718q-9 0 -21 4q-28 8 -28 37q0 16 9 28q16 21 38 21t35 -24l1 -4q3 -6 5 -16
q0 -46 -39 -46z" />
    <glyph glyph-name="Yacute" unicode="&#xdd;" horiz-adv-x="512" 
d="M263 -43q-97 0 -150 51q-38 36 -38 81q0 26 10 46q14 27 36 27q7 0 14 -3.5t10 -15t3 -24.5q-2 -16 -2 -30q0 -39 32 -67q18 -16 40 -16t48 12q59 31 59 189l-1 40q-2 45 -4 55q0 30 -6 33q-7 0 -23 -28q-33 -53 -55 -73q-31 -31 -64 -31l-12 1q-46 8 -74 36t-40.5 70.5
t-12.5 90.5q0 49 9 98q16 98 54 158q19 29 45 29q29 0 45 -34q5 -15 5 -34q0 -26 -10 -84l-8 -66q-10 -72 -10 -117q0 -88 28 -88q10 0 24 12q28 24 61 83q28 48 37 69q12 25 22 85q13 73 29.5 103.5t41.5 30.5q15 0 29 -18q15 -24 15 -45q0 -54 8 -169q9 -126 9 -181
q0 -44 -3 -84q-12 -137 -99 -173q-46 -19 -102 -19zM266 678q-7 0 -7 10l1 8q4 16 14 77q3 17 12 29q13 18 31 18q9 0 20 -6q18 -10 18 -33q0 -29 -36 -70l-15 -12q-26 -21 -38 -21z" />
    <glyph glyph-name="Zcaron" unicode="&#x17d;" horiz-adv-x="450" 
d="M157 -40q-55 0 -85 10q-54 18 -54 78q0 12 7 38.5t36.5 70.5t116.5 142q138 149 198 258q30 55 30 73q0 14 -15 14q-69 0 -207 -144q-58 -63 -95 -63q-19 0 -31 15q-16 20 -16 42q0 46 49 83q56 40 142 76.5t146 36.5q91 0 91 -82q0 -58 -49 -155t-157 -256
q-98 -145 -98 -153q0 -1 4 -1l105 51q62 35 91 35q47 0 57 -55q-1 -55 -52 -72l-54 -15q-87 -27 -160 -27zM275 709q-30 0 -58 34q-23 28 -37 88q-6 26 -6 43q0 16 6.5 28.5t21.5 12.5q24 0 45 -37q6 -14 15 -42q20 -64 30 -68q14 14 24 75q0 15 11 42q9 23 20 23
q12 0 12 -19q0 -17 -3 -31l-4 -17q-8 -51 -23 -85q-20 -47 -54 -47z" />
    <glyph glyph-name="Scaron" unicode="&#x160;" horiz-adv-x="414" 
d="M197 -53q-43 0 -88 26q-67 37 -67 103q0 38 36 72q24 21 50 21q33 0 33 -29q0 -12 -7 -29q-14 -31 -14 -62q0 -24 12 -41q16 -24 45 -24q28 0 52 34q26 38 26 82q0 37 -20 70q-23 39 -79 92q-91 87 -124 160q-18 40 -18 75q0 80 67 141q64 56 134 56l16 -1
q83 -10 120 -75q22 -40 22 -92q0 -25 -5 -50q-8 -28 -26 -44t-35 -16q-8 0 -17 4q-23 9 -23 35q0 11 5 24q15 45 16 84q0 39 -13 62q-16 28 -36 28q-23 0 -46 -36q-31 -46 -31 -92q0 -37 19 -81q26 -62 104 -169q30 -41 54.5 -82t24.5 -79v-22q0 -20 -19 -51.5t-49 -53.5
q-56 -40 -119 -40zM242 735q-30 0 -58 34q-23 28 -37 88q-6 26 -6 43q0 16 6.5 28.5t21.5 12.5q24 0 45 -37q6 -14 15 -42q20 -64 30 -68q14 14 24 75q0 15 11 42q9 23 20 23q12 0 12 -19q0 -17 -3 -31l-4 -17q-8 -51 -23 -85q-20 -47 -54 -47z" />
    <glyph glyph-name="agrave" unicode="&#xe0;" horiz-adv-x="368" 
d="M134 13q-45 0 -77.5 40t-32.5 112q0 59 17 115q29 97 98 131q24 12 49 12q2 0 16 -0.5t35.5 -14.5t32.5 -38.5t11 -52.5q0 -17 -8.5 -24t-17.5 -7h-6q-9 0 -21 39q-9 31 -17 31q-12 0 -24 -32q-17 -47 -24 -112q-5 -41 -5 -62q0 -36 12 -36q10 0 31 37q10 18 36 70
q15 36 48 36q17 0 27.5 -10t10.5 -27q0 -24 2 -43q2 -37 28 -94q3 -7 3 -14q0 -8 -6 -17q-11 -18 -38 -18q-31 0 -47.5 25t-20.5 60q0 9 -1 9q-3 0 -22 -36q-24 -45 -42 -62t-47 -17zM213 466q-46 4 -75 50q-16 24 -16 47q0 34 34 34q15 -2 26 -15q16 -20 30 -68l9 -26
q5 -9 5 -15q0 -7 -13 -7z" />
    <glyph glyph-name="aacute" unicode="&#xe1;" horiz-adv-x="368" 
d="M134 13q-45 0 -77.5 40t-32.5 112q0 59 17 115q29 97 98 131q24 12 49 12q2 0 16 -0.5t35.5 -14.5t32.5 -38.5t11 -52.5q0 -17 -8.5 -24t-17.5 -7h-6q-9 0 -21 39q-9 31 -17 31q-12 0 -24 -32q-17 -47 -24 -112q-5 -41 -5 -62q0 -36 12 -36q10 0 31 37q10 18 36 70
q15 36 48 36q17 0 27.5 -10t10.5 -27q0 -24 2 -43q2 -37 28 -94q3 -7 3 -14q0 -8 -6 -17q-11 -18 -38 -18q-31 0 -47.5 25t-20.5 60q0 9 -1 9q-3 0 -22 -36q-24 -45 -42 -62t-47 -17zM151 453q-7 0 -7 10l1 8q4 16 14 77q3 17 12 29q13 18 31 18q9 0 20 -6q18 -10 18 -33
q0 -29 -36 -70l-15 -12q-26 -21 -38 -21z" />
    <glyph glyph-name="acircumflex" unicode="&#xe2;" horiz-adv-x="368" 
d="M134 13q-45 0 -77.5 40t-32.5 112q0 59 17 115q29 97 98 131q24 12 49 12q2 0 16 -0.5t35.5 -14.5t32.5 -38.5t11 -52.5q0 -17 -8.5 -24t-17.5 -7h-6q-9 0 -21 39q-9 31 -17 31q-12 0 -24 -32q-17 -47 -24 -112q-5 -41 -5 -62q0 -36 12 -36q10 0 31 37q10 18 36 70
q15 36 48 36q17 0 27.5 -10t10.5 -27q0 -24 2 -43q2 -37 28 -94q3 -7 3 -14q0 -8 -6 -17q-11 -18 -38 -18q-31 0 -47.5 25t-20.5 60q0 9 -1 9q-3 0 -22 -36q-24 -45 -42 -62t-47 -17zM111 463h-2q-5 0 -11 5t-6 18q0 12 5 31q32 129 83 129q31 0 55 -41q15 -26 24 -64v-2
q6 -22 6 -37q0 -6 -1 -15t-8 -16t-21 -7q-46 0 -59 39q-7 22 -7 67v14q0 10 -3 10q-5 0 -20 -55l-12 -38q-11 -36 -23 -38z" />
    <glyph glyph-name="atilde" unicode="&#xe3;" horiz-adv-x="368" 
d="M134 13q-45 0 -77.5 40t-32.5 112q0 59 17 115q29 97 98 131q24 12 49 12q2 0 16 -0.5t35.5 -14.5t32.5 -38.5t11 -52.5q0 -17 -8.5 -24t-17.5 -7h-6q-9 0 -21 39q-9 31 -17 31q-12 0 -24 -32q-17 -47 -24 -112q-5 -41 -5 -62q0 -36 12 -36q10 0 31 37q10 18 36 70
q15 36 48 36q17 0 27.5 -10t10.5 -27q0 -24 2 -43q2 -37 28 -94q3 -7 3 -14q0 -8 -6 -17q-11 -18 -38 -18q-31 0 -47.5 25t-20.5 60q0 9 -1 9q-3 0 -22 -36q-24 -45 -42 -62t-47 -17zM105 471q-27 0 -38 21q-3 7 -3 15q0 22 21.5 52.5t54.5 30.5l15 -1q40 -8 64 -43
q9 -12 18 -12q14 0 34 35q7 12 15 12h5q6 0 6 -23q0 -29 -11.5 -56t-38.5 -27q-20 0 -38 13q-8 5 -13.5 10t-13.5 9q-11 11 -16 11q-10 0 -23 -23.5t-38 -23.5z" />
    <glyph glyph-name="adieresis" unicode="&#xe4;" horiz-adv-x="368" 
d="M134 13q-45 0 -77.5 40t-32.5 112q0 59 17 115q29 97 98 131q24 12 49 12q2 0 16 -0.5t35.5 -14.5t32.5 -38.5t11 -52.5q0 -17 -8.5 -24t-17.5 -7h-6q-9 0 -21 39q-9 31 -17 31q-12 0 -24 -32q-17 -47 -24 -112q-5 -41 -5 -62q0 -36 12 -36q10 0 31 37q10 18 36 70
q15 36 48 36q17 0 27.5 -10t10.5 -27q0 -24 2 -43q2 -37 28 -94q3 -7 3 -14q0 -8 -6 -17q-11 -18 -38 -18q-31 0 -47.5 25t-20.5 60q0 9 -1 9q-3 0 -22 -36q-24 -45 -42 -62t-47 -17zM123 461h-2q-17 0 -36 13l-5 5q-12 15 -12 30t14 29q18 16 36 17q17 0 30 -10
q17 -13 17 -34q0 -14 -10 -29q-14 -21 -32 -21zM237 464q-9 0 -21 4q-28 8 -28 37q0 16 9 28q16 21 38 21t35 -24l1 -4q3 -6 5 -16q0 -46 -39 -46z" />
    <glyph glyph-name="aring" unicode="&#xe5;" horiz-adv-x="368" 
d="M134 13q-45 0 -77.5 40t-32.5 112q0 59 17 115q29 97 98 131q24 12 49 12q2 0 16 -0.5t35.5 -14.5t32.5 -38.5t11 -52.5q0 -17 -8.5 -24t-17.5 -7h-6q-9 0 -21 39q-9 31 -17 31q-12 0 -24 -32q-17 -47 -24 -112q-5 -41 -5 -62q0 -36 12 -36q10 0 31 37q10 18 36 70
q15 36 48 36q17 0 27.5 -10t10.5 -27q0 -24 2 -43q2 -37 28 -94q3 -7 3 -14q0 -8 -6 -17q-11 -18 -38 -18q-31 0 -47.5 25t-20.5 60q0 9 -1 9q-3 0 -22 -36q-24 -45 -42 -62t-47 -17zM200 482q3 0 9 4.5t12 18.5t6 30q0 19 -12 36q-13 -6 -19.5 -23.5t-6.5 -38.5
q0 -27 11 -27zM197 453l-13 1q-69 17 -69 70q0 37 27 70q21 25 48 25q34 0 56 -32q18 -25 18 -57q0 -47 -32 -67q-14 -10 -35 -10z" />
    <glyph glyph-name="ae" unicode="&#xe6;" horiz-adv-x="592" 
d="M436 224q18 5 36 42q12 26 21 55v1q7 20 8 35q0 10 -3.5 15t-10.5 5q-30 0 -47 -71q-8 -31 -8 -56q0 -18 4 -26zM353 53q-1 0 -1 -1q-11 -18 -38 -18q-31 0 -47.5 25t-20.5 60q0 9 -1 9q-3 0 -22 -36q-24 -45 -42 -62t-47 -17q-45 0 -77.5 40t-32.5 112q0 59 17 115
q29 97 98 131q24 12 49 12q2 0 16 -0.5t35.5 -14.5t32.5 -38.5t11 -52.5q0 -17 -8.5 -24t-17.5 -7h-6q-9 0 -21 39q-9 31 -17 31q-12 0 -24 -32q-17 -47 -24 -112q-5 -41 -5 -62q0 -36 12 -36q10 0 31 37q10 18 36 70q15 36 48 36q8 0 15 -2q5 19 13 40q22 55 64.5 88
t90.5 33q24 0 47 -13t34 -36.5t11 -53.5q0 -49 -23 -96q-18 -34 -44 -56q-21 -17 -37 -17q-6 0 -13 2l2 -19q6 -39 40 -39q11 0 28 6q20 8 31 8q2 0 10.5 -0.5t8.5 -14.5q0 -18 -21 -38q-31 -29 -95 -29q-37 0 -73 19q-13 6 -23 14z" />
    <glyph glyph-name="oe" unicode="&#x153;" horiz-adv-x="601" 
d="M220 99q9 0 20 9q46 37 46 126q0 63 -23 119q-16 37 -34 38q-10 0 -20 -16q-29 -45 -29 -131q0 -48 4 -79q7 -34 15.5 -50t20.5 -16zM448 224q18 5 36 42q12 26 21 55v1q7 20 8 35q0 10 -3.5 15t-10.5 5q-30 0 -47 -71q-8 -31 -8 -56q0 -18 4 -26zM313 126q-3 -7 -7 -15
q-47 -95 -132 -95q-67 0 -114 66q-41 57 -41 136q0 34 13 72q25 77 80 120q35 26 81 26q77 0 115 -68q16 -28 22 -66q22 50 62 81q42 33 90 33q24 0 47 -13t34 -36.5t11 -53.5q0 -49 -23 -96q-18 -34 -44 -56q-21 -17 -37 -17q-6 0 -13 2l2 -19q6 -39 40 -39q11 0 28 6
q20 8 31 8q2 0 10.5 -0.5t8.5 -14.5q0 -18 -21 -38q-31 -29 -95 -29q-37 0 -73 19q-57 29 -75 87z" />
    <glyph glyph-name="ccedilla" unicode="&#xe7;" horiz-adv-x="332" 
d="M125 24q-38 19 -62 52q-44 56 -44 135q0 50 21 97q16 38 46 66q49 45 111 49q30 0 53 -11q51 -26 53 -99q0 -35 -9 -60q-12 -30 -36 -30q-15 0 -24.5 7t-10.5 19q0 16 8 29q5 7 10 17q7 18 7 44q0 40 -19 40q-18 0 -44 -37q-37 -53 -37 -128q0 -17 3.5 -47.5t23.5 -66.5
q24 -40 37 -40q10 0 28 30q6 10 14 21q14 19 29 19q19 0 19 -25q0 -43 -45 -75q-29 -22 -68 -22h-9q0 -3 1 -6q0 -5 5 -7t16 -2h3q32 0 60 -27q24 -22 24 -55q0 -37 -20 -66q-22 -34 -53 -34q-15 0 -34 8t-26 16q-5 6 -5 8q0 3 2.5 4t5.5 1t7 -1.5t9 -1.5q3 0 6 2
q23 15 36 55q8 27 8 51q0 18 -10 18q-1 0 -5.5 -1.5t-13.5 -9.5t-17 -15.5t-14 -12.5t-13 -5q-8 0 -14.5 6.5t-9.5 15.5q-5 11 -5 43q0 17 2 32z" />
    <glyph glyph-name="egrave" unicode="&#xe8;" horiz-adv-x="320" 
d="M165 219q18 5 36 42q12 26 21 55v1q7 20 8 35q0 10 -3.5 15t-10.5 5q-30 0 -47 -71q-8 -31 -8 -56q0 -18 4 -26zM178 15q-37 0 -73 19q-83 42 -83 146q0 54 22 109.5t64.5 88.5t90.5 33q24 0 47 -13t34 -36.5t11 -53.5q0 -49 -23 -96q-18 -34 -44 -56q-21 -17 -37 -17
q-6 0 -13 2l2 -19q6 -39 40 -39q11 0 28 6q20 8 31 8q2 0 10.5 -0.5t8.5 -14.5q0 -18 -21 -38q-31 -29 -95 -29zM200 444q-46 4 -75 50q-16 24 -16 47q0 34 34 34q15 -2 26 -15q16 -20 30 -68l9 -26q5 -9 5 -15q0 -7 -13 -7z" />
    <glyph glyph-name="eacute" unicode="&#xe9;" horiz-adv-x="320" 
d="M165 219q18 5 36 42q12 26 21 55v1q7 20 8 35q0 10 -3.5 15t-10.5 5q-30 0 -47 -71q-8 -31 -8 -56q0 -18 4 -26zM178 15q-37 0 -73 19q-83 42 -83 146q0 54 22 109.5t64.5 88.5t90.5 33q24 0 47 -13t34 -36.5t11 -53.5q0 -49 -23 -96q-18 -34 -44 -56q-21 -17 -37 -17
q-6 0 -13 2l2 -19q6 -39 40 -39q11 0 28 6q20 8 31 8q2 0 10.5 -0.5t8.5 -14.5q0 -18 -21 -38q-31 -29 -95 -29zM161 439q-7 0 -7 10l1 8q4 16 14 77q3 17 12 29q13 18 31 18q9 0 20 -6q18 -10 18 -33q0 -29 -36 -70l-15 -12q-26 -21 -38 -21z" />
    <glyph glyph-name="ecircumflex" unicode="&#xea;" horiz-adv-x="320" 
d="M165 219q18 5 36 42q12 26 21 55v1q7 20 8 35q0 10 -3.5 15t-10.5 5q-30 0 -47 -71q-8 -31 -8 -56q0 -18 4 -26zM178 15q-37 0 -73 19q-83 42 -83 146q0 54 22 109.5t64.5 88.5t90.5 33q24 0 47 -13t34 -36.5t11 -53.5q0 -49 -23 -96q-18 -34 -44 -56q-21 -17 -37 -17
q-6 0 -13 2l2 -19q6 -39 40 -39q11 0 28 6q20 8 31 8q2 0 10.5 -0.5t8.5 -14.5q0 -18 -21 -38q-31 -29 -95 -29zM116 437h-2q-5 0 -11 5t-6 18q0 12 5 31q32 129 83 129q31 0 55 -41q15 -26 24 -64v-2q6 -22 6 -37q0 -6 -1 -15t-8 -16t-21 -7q-46 0 -59 39q-7 22 -7 67v14
q0 10 -3 10q-5 0 -20 -55l-12 -38q-11 -36 -23 -38z" />
    <glyph glyph-name="edieresis" unicode="&#xeb;" horiz-adv-x="320" 
d="M165 219q18 5 36 42q12 26 21 55v1q7 20 8 35q0 10 -3.5 15t-10.5 5q-30 0 -47 -71q-8 -31 -8 -56q0 -18 4 -26zM178 15q-37 0 -73 19q-83 42 -83 146q0 54 22 109.5t64.5 88.5t90.5 33q24 0 47 -13t34 -36.5t11 -53.5q0 -49 -23 -96q-18 -34 -44 -56q-21 -17 -37 -17
q-6 0 -13 2l2 -19q6 -39 40 -39q11 0 28 6q20 8 31 8q2 0 10.5 -0.5t8.5 -14.5q0 -18 -21 -38q-31 -29 -95 -29zM126 446h-2q-17 0 -36 13l-5 5q-12 15 -12 30t14 29q18 16 36 17q17 0 30 -10q17 -13 17 -34q0 -14 -10 -29q-14 -21 -32 -21zM240 449q-9 0 -21 4
q-28 8 -28 37q0 16 9 28q16 21 38 21t35 -24l1 -4q3 -6 5 -16q0 -46 -39 -46z" />
    <glyph glyph-name="igrave" unicode="&#xec;" horiz-adv-x="222" 
d="M133 10q-61 0 -83 68q-21 62 -21 171q0 102 43 143q18 15 38 15q19 -1 35 -13t23 -33q9 -36 10 -88q0 -52 -1 -103l-1 -73l1 -19q0 -34 -9 -51t-35 -17zM137 437q-46 4 -75 50q-16 24 -16 47q0 34 34 34q15 -2 26 -15q16 -20 30 -68l9 -26q5 -9 5 -15q0 -7 -13 -7z" />
    <glyph glyph-name="iacute" unicode="&#xed;" horiz-adv-x="222" 
d="M133 10q-61 0 -83 68q-21 62 -21 171q0 102 43 143q18 15 38 15q19 -1 35 -13t23 -33q9 -36 10 -88q0 -52 -1 -103l-1 -73l1 -19q0 -34 -9 -51t-35 -17zM69 440q-7 0 -7 10l1 8q4 16 14 77q3 17 12 29q13 18 31 18q9 0 20 -6q18 -10 18 -33q0 -29 -36 -70l-15 -12
q-26 -21 -38 -21z" />
    <glyph glyph-name="icircumflex" unicode="&#xee;" horiz-adv-x="222" 
d="M133 10q-61 0 -83 68q-21 62 -21 171q0 102 43 143q18 15 38 15q19 -1 35 -13t23 -33q9 -36 10 -88q0 -52 -1 -103l-1 -73l1 -19q0 -34 -9 -51t-35 -17zM46 435h-2q-5 0 -11 5t-6 18q0 12 5 31q32 129 83 129q31 0 55 -41q15 -26 24 -64v-2q6 -22 6 -37q0 -6 -1 -15
t-8 -16t-21 -7q-46 0 -59 39q-7 22 -7 67v14q0 10 -3 10q-5 0 -20 -55l-12 -38q-11 -36 -23 -38z" />
    <glyph glyph-name="idieresis" unicode="&#xef;" horiz-adv-x="222" 
d="M133 10q-61 0 -83 68q-21 62 -21 171q0 102 43 143q18 15 38 15q19 -1 35 -13t23 -33q9 -36 10 -88q0 -52 -1 -103l-1 -73l1 -19q0 -34 -9 -51t-35 -17zM48 444h-2q-17 0 -36 13l-5 5q-12 15 -12 30t14 29q18 16 36 17q17 0 30 -10q17 -13 17 -34q0 -14 -10 -29
q-14 -21 -32 -21zM162 447q-9 0 -21 4q-28 8 -28 37q0 16 9 28q16 21 38 21t35 -24l1 -4q3 -6 5 -16q0 -46 -39 -46z" />
    <glyph glyph-name="ograve" unicode="&#xf2;" horiz-adv-x="367" 
d="M220 99q9 0 20 9q46 37 46 126q0 63 -23 119q-16 37 -34 38q-10 0 -20 -16q-29 -45 -29 -131q0 -48 4 -79q7 -34 15.5 -50t20.5 -16zM174 16q-67 0 -114 66q-41 57 -41 136q0 34 13 72q25 77 80 120q35 26 81 26q77 0 115 -68q27 -49 27 -124q0 -74 -29 -133
q-47 -95 -132 -95zM210 466q-46 4 -75 50q-16 24 -16 47q0 34 34 34q15 -2 26 -15q16 -20 30 -68l9 -26q5 -9 5 -15q0 -7 -13 -7z" />
    <glyph glyph-name="oacute" unicode="&#xf3;" horiz-adv-x="367" 
d="M220 99q9 0 20 9q46 37 46 126q0 63 -23 119q-16 37 -34 38q-10 0 -20 -16q-29 -45 -29 -131q0 -48 4 -79q7 -34 15.5 -50t20.5 -16zM174 16q-67 0 -114 66q-41 57 -41 136q0 34 13 72q25 77 80 120q35 26 81 26q77 0 115 -68q27 -49 27 -124q0 -74 -29 -133
q-47 -95 -132 -95zM173 467q-7 0 -7 10l1 8q4 16 14 77q3 17 12 29q13 18 31 18q9 0 20 -6q18 -10 18 -33q0 -29 -36 -70l-15 -12q-26 -21 -38 -21z" />
    <glyph glyph-name="ocircumflex" unicode="&#xf4;" horiz-adv-x="367" 
d="M220 99q9 0 20 9q46 37 46 126q0 63 -23 119q-16 37 -34 38q-10 0 -20 -16q-29 -45 -29 -131q0 -48 4 -79q7 -34 15.5 -50t20.5 -16zM174 16q-67 0 -114 66q-41 57 -41 136q0 34 13 72q25 77 80 120q35 26 81 26q77 0 115 -68q27 -49 27 -124q0 -74 -29 -133
q-47 -95 -132 -95zM127 460h-2q-5 0 -11 5t-6 18q0 12 5 31q32 129 83 129q31 0 55 -41q15 -26 24 -64v-2q6 -22 6 -37q0 -6 -1 -15t-8 -16t-21 -7q-46 0 -59 39q-7 22 -7 67v14q0 10 -3 10q-5 0 -20 -55l-12 -38q-11 -36 -23 -38z" />
    <glyph glyph-name="otilde" unicode="&#xf5;" horiz-adv-x="367" 
d="M220 99q9 0 20 9q46 37 46 126q0 63 -23 119q-16 37 -34 38q-10 0 -20 -16q-29 -45 -29 -131q0 -48 4 -79q7 -34 15.5 -50t20.5 -16zM174 16q-67 0 -114 66q-41 57 -41 136q0 34 13 72q25 77 80 120q35 26 81 26q77 0 115 -68q27 -49 27 -124q0 -74 -29 -133
q-47 -95 -132 -95zM108 468q-27 0 -38 21q-3 7 -3 15q0 22 21.5 52.5t54.5 30.5l15 -1q40 -8 64 -43q9 -12 18 -12q14 0 34 35q7 12 15 12h5q6 0 6 -23q0 -29 -11.5 -56t-38.5 -27q-20 0 -38 13q-8 5 -13.5 10t-13.5 9q-11 11 -16 11q-10 0 -23 -23.5t-38 -23.5z" />
    <glyph glyph-name="odieresis" unicode="&#xf6;" horiz-adv-x="367" 
d="M220 99q9 0 20 9q46 37 46 126q0 63 -23 119q-16 37 -34 38q-10 0 -20 -16q-29 -45 -29 -131q0 -48 4 -79q7 -34 15.5 -50t20.5 -16zM174 16q-67 0 -114 66q-41 57 -41 136q0 34 13 72q25 77 80 120q35 26 81 26q77 0 115 -68q27 -49 27 -124q0 -74 -29 -133
q-47 -95 -132 -95zM141 467h-2q-17 0 -36 13l-5 5q-12 15 -12 30t14 29q18 16 36 17q17 0 30 -10q17 -13 17 -34q0 -14 -10 -29q-14 -21 -32 -21zM255 470q-9 0 -21 4q-28 8 -28 37q0 16 9 28q16 21 38 21t35 -24l1 -4q3 -6 5 -16q0 -46 -39 -46z" />
    <glyph glyph-name="oslash" unicode="&#xf8;" horiz-adv-x="367" 
d="M189 17q-19 -56 -31 -86q-21 -54 -31 -57h-4q-11 0 -11 17q0 18 5 39q10 39 24 90q-46 13 -81 62q-41 57 -41 136q0 34 13 72q25 77 80 120q35 26 81 26q39 0 68 -17q3 9 7 19q36 99 55 107q13 0 13 -24q0 -41 -31 -148q2 -2 3 -5q27 -49 27 -124q0 -74 -29 -133
q-43 -87 -117 -94zM281 291q-23 -74 -64 -192h3q9 0 20 9q46 37 46 126q0 29 -5 57zM184 167q8 27 17 57q18 71 47 156q-9 10 -19 11q-10 0 -20 -16q-29 -45 -29 -131q0 -47 4 -77z" />
    <glyph glyph-name="ugrave" unicode="&#xf9;" horiz-adv-x="448" 
d="M156 24q-5 0 -20.5 2t-43.5 23q-31 27 -47 65q-22 49 -22 108q0 30 7 65q11 63 44 102q28 32 61 32q19 0 31 -13q16 -19 16 -50l-1 -11q-6 -114 -6 -139q0 -24 1 -46q5 -51 23 -52q15 0 36.5 38.5t40.5 100.5q0 2 1 3q6 21 10 45q7 44 18 64q14 29 40 29t34.5 -31.5
t14.5 -93.5q6 -77 26 -136q7 -21 7 -36q0 -8 -3.5 -21t-18 -21.5t-30.5 -8.5q-23 0 -39.5 10t-23.5 29q-12 28 -12 60v14q-1 0 -7 -11q-34 -57 -58 -81q-39 -39 -79 -39zM272 447q-46 4 -75 50q-16 24 -16 47q0 34 34 34q15 -2 26 -15q16 -20 30 -68l9 -26q5 -9 5 -15
q0 -7 -13 -7z" />
    <glyph glyph-name="uacute" unicode="&#xfa;" horiz-adv-x="448" 
d="M156 24q-5 0 -20.5 2t-43.5 23q-31 27 -47 65q-22 49 -22 108q0 30 7 65q11 63 44 102q28 32 61 32q19 0 31 -13q16 -19 16 -50l-1 -11q-6 -114 -6 -139q0 -24 1 -46q5 -51 23 -52q15 0 36.5 38.5t40.5 100.5q0 2 1 3q6 21 10 45q7 44 18 64q14 29 40 29t34.5 -31.5
t14.5 -93.5q6 -77 26 -136q7 -21 7 -36q0 -8 -3.5 -21t-18 -21.5t-30.5 -8.5q-23 0 -39.5 10t-23.5 29q-12 28 -12 60v14q-1 0 -7 -11q-34 -57 -58 -81q-39 -39 -79 -39zM224 428q-7 0 -7 10l1 8q4 16 14 77q3 17 12 29q13 18 31 18q9 0 20 -6q18 -10 18 -33q0 -29 -36 -70
l-15 -12q-26 -21 -38 -21z" />
    <glyph glyph-name="ucircumflex" unicode="&#xfb;" horiz-adv-x="448" 
d="M156 24q-5 0 -20.5 2t-43.5 23q-31 27 -47 65q-22 49 -22 108q0 30 7 65q11 63 44 102q28 32 61 32q19 0 31 -13q16 -19 16 -50l-1 -11q-6 -114 -6 -139q0 -24 1 -46q5 -51 23 -52q15 0 36.5 38.5t40.5 100.5q0 2 1 3q6 21 10 45q7 44 18 64q14 29 40 29t34.5 -31.5
t14.5 -93.5q6 -77 26 -136q7 -21 7 -36q0 -8 -3.5 -21t-18 -21.5t-30.5 -8.5q-23 0 -39.5 10t-23.5 29q-12 28 -12 60v14q-1 0 -7 -11q-34 -57 -58 -81q-39 -39 -79 -39zM178 455h-2q-5 0 -11 5t-6 18q0 12 5 31q32 129 83 129q31 0 55 -41q15 -26 24 -64v-2q6 -22 6 -37
q0 -6 -1 -15t-8 -16t-21 -7q-46 0 -59 39q-7 22 -7 67v14q0 10 -3 10q-5 0 -20 -55l-12 -38q-11 -36 -23 -38z" />
    <glyph glyph-name="udieresis" unicode="&#xfc;" horiz-adv-x="448" 
d="M156 24q-5 0 -20.5 2t-43.5 23q-31 27 -47 65q-22 49 -22 108q0 30 7 65q11 63 44 102q28 32 61 32q19 0 31 -13q16 -19 16 -50l-1 -11q-6 -114 -6 -139q0 -24 1 -46q5 -51 23 -52q15 0 36.5 38.5t40.5 100.5q0 2 1 3q6 21 10 45q7 44 18 64q14 29 40 29t34.5 -31.5
t14.5 -93.5q6 -77 26 -136q7 -21 7 -36q0 -8 -3.5 -21t-18 -21.5t-30.5 -8.5q-23 0 -39.5 10t-23.5 29q-12 28 -12 60v14q-1 0 -7 -11q-34 -57 -58 -81q-39 -39 -79 -39zM189 456h-2q-17 0 -36 13l-5 5q-12 15 -12 30t14 29q18 16 36 17q17 0 30 -10q17 -13 17 -34
q0 -14 -10 -29q-14 -21 -32 -21zM303 459q-9 0 -21 4q-28 8 -28 37q0 16 9 28q16 21 38 21t35 -24l1 -4q3 -6 5 -16q0 -46 -39 -46z" />
    <glyph glyph-name="ydieresis" unicode="&#xff;" horiz-adv-x="457" 
d="M208 -270q-39 0 -68 18q-45 26 -53 83q0 49 42 51q18 0 35 -44q16 -51 48 -51q82 0 82 276q0 48 -6 65q-48 -64 -86 -85q-22 -13 -63 -13q-14 0 -46 19q-32 27 -49 67q-22 51 -22 112q0 108 53 169q29 33 61 33q18 0 31 -14q17 -19 17 -58q-7 -91 -7 -146q0 -25 1 -48
q5 -48 25 -48t44.5 31.5t28.5 45.5q14 35 16 97q0 51 2 73q4 47 39 47l12 1q29 0 43 -27q44 -79 44 -352q0 -95 -27 -162q-40 -101 -155 -134q-21 -6 -42 -6zM195 467h-2q-17 0 -36 13l-5 5q-12 15 -12 30t14 29q18 16 36 17q17 0 30 -10q17 -13 17 -34q0 -14 -10 -29
q-14 -21 -32 -21zM309 470q-9 0 -21 4q-28 8 -28 37q0 16 9 28q16 21 38 21t35 -24l1 -4q3 -6 5 -16q0 -46 -39 -46z" />
    <glyph glyph-name="yacute" unicode="&#xfd;" horiz-adv-x="457" 
d="M208 -270q-39 0 -68 18q-45 26 -53 83q0 49 42 51q18 0 35 -44q16 -51 48 -51q82 0 82 276q0 48 -6 65q-48 -64 -86 -85q-22 -13 -63 -13q-14 0 -46 19q-32 27 -49 67q-22 51 -22 112q0 108 53 169q29 33 61 33q18 0 31 -14q17 -19 17 -58q-7 -91 -7 -146q0 -25 1 -48
q5 -48 25 -48t44.5 31.5t28.5 45.5q14 35 16 97q0 51 2 73q4 47 39 47l12 1q29 0 43 -27q44 -79 44 -352q0 -95 -27 -162q-40 -101 -155 -134q-21 -6 -42 -6zM221 448q-7 0 -7 10l1 8q4 16 14 77q3 17 12 29q13 18 31 18q9 0 20 -6q18 -10 18 -33q0 -29 -36 -70l-15 -12
q-26 -21 -38 -21z" />
    <glyph glyph-name="zcaron" unicode="&#x17e;" horiz-adv-x="335" 
d="M112 -1q-38 0 -56 16q-34 26 -34 63l1 13q0 57 110 201q30 40 56 80q-26 -3 -71 -16q-43 -15 -65 -15q-11 0 -20 5q-14 7 -14 23q0 36 112 53q42 6 83 6q39 0 64 -38q21 -31 21 -57q0 -36 -65 -119q-94 -126 -94 -142q0 -2 3 -2q18 0 71 38q25 23 51 23q11 0 22 -4
q26 -11 26 -39q0 -41 -96 -71q-46 -18 -105 -18zM175 467q-28 0 -55 32q-22 27 -35 84q-6 26 -6 42q0 15 6.5 27t20.5 12q23 0 43 -35q6 -14 14 -41q19 -61 29 -65q13 14 23 72q0 14 10 40q9 22 19 22q12 0 12 -18q0 -16 -3 -30l-4 -16q-7 -48 -22 -81q-19 -45 -52 -45z" />
    <glyph glyph-name="scaron" unicode="&#x161;" horiz-adv-x="330" 
d="M176 -2q-48 0 -90 29q-20 15 -33 41q-8 13 -8 26q0 11 9 18t18 7q18 0 42 -21q17 -13 27 -13q17 0 17 23q0 29 -61 63q-20 13 -38 28q-43 33 -45 84q4 71 70 124q57 45 114 45q60 0 93 -41q19 -28 19 -72q0 -43 -20 -72q-13 -18 -38 -18h-10q-18 2 -18 27l2 60
q0 37 -16 37q-4 0 -8 -2q-45 -36 -45 -74q0 -47 69 -107q61 -53 61 -105q0 -33 -29 -58q-34 -29 -82 -29zM187 479q-28 0 -55 32q-22 27 -35 84q-6 26 -6 42q0 15 6.5 27t20.5 12q23 0 43 -35q6 -14 14 -41q19 -61 29 -65q13 14 23 72q0 14 10 40q9 22 19 22q12 0 12 -18
q0 -16 -3 -30l-4 -16q-7 -48 -22 -81q-19 -45 -52 -45z" />
    </font>
</defs>
</svg>
